<svg width="122" height="51" viewBox="0 0 122 51" fill="none" xmlns="http://www.w3.org/2000/svg">
<g clip-path="url(#clip0_717_4214)" filter="url(#filter0_d_717_4214)">
<path d="M11.4887 45.3423C11.5289 45.5189 11.4124 45.6922 11.2336 45.7128L9.77438 45.8787V45.8441C9.77438 45.5387 9.68333 45.3118 9.50206 45.1632C9.32078 45.0147 9.12064 44.9404 8.90246 44.9404C8.61865 44.9404 8.34223 45.0452 8.07318 45.2548C7.80332 45.4644 7.5876 45.7846 7.42437 46.2154C7.26114 46.6462 7.17993 47.0654 7.17993 47.4739C7.17993 47.785 7.2636 48.045 7.43093 48.2554C7.59826 48.465 7.84187 48.5699 8.16259 48.5699C8.45788 48.5699 8.70642 48.4758 8.90902 48.2876C9.07389 48.1341 9.22317 47.913 9.35523 47.6249C9.41101 47.5036 9.53897 47.4335 9.67021 47.4541L10.8932 47.6456C11.0851 47.6753 11.1959 47.8791 11.1204 48.0599C10.9145 48.5525 10.5946 48.9784 10.1591 49.3365C9.62181 49.7788 8.92214 50 8.05924 50C7.19634 50 6.47288 49.759 5.99795 49.2763C5.52303 48.7943 5.28516 48.1523 5.28516 47.3501C5.28516 46.737 5.42624 46.1205 5.7084 45.5008C5.99057 44.8818 6.40234 44.3949 6.94452 44.0409C7.48589 43.6869 8.13552 43.5103 8.89261 43.5103C9.6497 43.5103 10.2985 43.7083 10.7538 44.1053C11.1278 44.4312 11.3722 44.843 11.4871 45.3407L11.4887 45.3423Z" fill="white"/>
<path d="M17.7459 48.7209L17.5515 49.6559C17.5228 49.7946 17.4014 49.8936 17.2611 49.8936H12.84C12.6513 49.8936 12.5102 49.7186 12.5496 49.533L13.7463 43.8553C13.775 43.7174 13.8964 43.6184 14.0367 43.6184H15.3729C15.5616 43.6184 15.7026 43.7942 15.6633 43.9799L14.8053 47.9997C14.7659 48.1853 14.9062 48.3611 15.0956 48.3611H17.4555C17.6442 48.3611 17.7844 48.5352 17.7459 48.7209Z" fill="white"/>
<path d="M22.8435 43.512C23.7933 43.512 24.4913 43.7678 24.9367 44.2803C25.3821 44.7927 25.6044 45.4224 25.6044 46.1701C25.6044 46.4581 25.5634 46.7874 25.4814 47.1571C25.3994 47.5268 25.2402 47.9089 25.0048 48.3042C24.7694 48.6995 24.4635 49.0345 24.0878 49.3102C23.7121 49.5858 23.3512 49.7698 23.005 49.8623C22.6589 49.9547 22.2914 50.0017 21.9035 50.0017C21.0127 50.0017 20.3179 49.7748 19.8192 49.3209C19.3197 48.867 19.0703 48.2307 19.0703 47.4121C19.0703 46.9838 19.1318 46.567 19.2557 46.1602C19.3795 45.7533 19.5633 45.3696 19.8085 45.009C20.0538 44.6483 20.3556 44.3455 20.7149 44.102C21.0734 43.8577 21.4269 43.6993 21.7739 43.625C22.1216 43.5507 22.4776 43.5136 22.8435 43.5136V43.512ZM22.0224 48.5707C22.394 48.5707 22.7098 48.4296 22.969 48.1474C23.2282 47.8652 23.4176 47.5086 23.5366 47.0795C23.6555 46.6504 23.7154 46.3442 23.7154 46.1618C23.7154 45.7599 23.6137 45.4554 23.4111 45.2499C23.2085 45.0445 22.9493 44.9413 22.6343 44.9413C22.2824 44.9413 21.9797 45.0709 21.7263 45.3283C21.4728 45.5866 21.2817 45.9308 21.1537 46.3599C21.0258 46.789 20.9626 47.1554 20.9626 47.4575C20.9626 47.7769 21.0561 48.0426 21.2432 48.2538C21.4302 48.4651 21.6902 48.5707 22.0216 48.5707H22.0224Z" fill="white"/>
<path d="M33.6773 43.6192C33.8659 43.6192 34.007 43.795 33.9677 43.9807L33.2368 47.403C33.0465 48.2877 32.7078 48.9421 32.2197 49.3654C31.7317 49.7888 31.0074 50.0009 30.046 50.0009C29.5129 50.0009 29.0864 49.9481 28.7673 49.8424C28.4482 49.7368 28.1792 49.5784 27.961 49.3671C27.7428 49.1558 27.5837 48.9157 27.4844 48.6458C27.3852 48.376 27.3359 48.0871 27.3359 47.7793C27.3359 47.3881 27.3745 47.0143 27.4508 46.6578L28.043 43.8553C28.0725 43.7174 28.1931 43.6184 28.3334 43.6184H29.6622C29.8508 43.6184 29.9919 43.7934 29.9525 43.979L29.2799 47.1488C29.2463 47.3139 29.2291 47.4897 29.2291 47.6753C29.2291 48.1721 29.5211 48.4205 30.1051 48.4205C30.4143 48.4205 30.6776 48.3265 30.8942 48.1383C31.1107 47.9501 31.2764 47.5846 31.3896 47.0424L32.0507 43.8561C32.0794 43.7174 32.2008 43.6184 32.3411 43.6184H33.6765L33.6773 43.6192Z" fill="white"/>
<path d="M36.0955 43.8561C36.1242 43.7174 36.2456 43.6184 36.3858 43.6184H38.7055C39.616 43.6184 40.2795 43.861 40.6962 44.3463C41.1129 44.8315 41.3213 45.4653 41.3213 46.2468C41.3213 47.0283 41.1424 47.6902 40.7856 48.3273C40.4288 48.9644 40.0056 49.3836 39.5175 49.5874C39.0295 49.7913 38.5644 49.8936 38.1223 49.8936H35.203C35.0144 49.8936 34.8741 49.7195 34.9127 49.5338L36.0946 43.8561H36.0955ZM37.1421 48.1474C37.1035 48.3331 37.2446 48.5064 37.4325 48.5064H37.8631C38.3905 48.5064 38.7834 48.2324 39.0418 47.6844C39.3002 47.1364 39.4289 46.5901 39.4289 46.0455C39.4289 45.7228 39.3543 45.4686 39.2058 45.2813C39.0566 45.0948 38.79 45.0007 38.4036 45.0007H38.0329C37.8926 45.0007 37.7712 45.0997 37.7425 45.2384L37.1421 48.1466V48.1474Z" fill="white"/>
<path d="M51.1557 43.9798L50.9966 44.7307C50.9671 44.8686 50.8465 44.9676 50.7062 44.9676H48.0224C47.8821 44.9676 47.7607 45.0666 47.732 45.2044L47.6483 45.6047C47.6098 45.7904 47.75 45.9645 47.9387 45.9645H50.2534C50.4429 45.9645 50.584 46.1411 50.543 46.3276L50.3945 47.0018C50.3642 47.1388 50.2436 47.2354 50.105 47.2354H47.5368C47.3973 47.2354 47.2759 47.3336 47.2464 47.4706L47.1111 48.1019C47.0709 48.2876 47.212 48.4634 47.4014 48.4634H50.0992C50.2887 48.4634 50.429 48.6391 50.3896 48.8248L50.2116 49.6575C50.1821 49.7953 50.0615 49.8935 49.9212 49.8935H45.172C44.9833 49.8935 44.8423 49.7186 44.8816 49.5329L46.0866 43.8552C46.1161 43.7173 46.2367 43.6191 46.3769 43.6191H50.867C51.0556 43.6191 51.1967 43.7941 51.1574 43.9798H51.1557Z" fill="white"/>
<path d="M53.2037 43.8553C53.2324 43.7174 53.3538 43.6184 53.494 43.6184H56.8013C57.414 43.6184 57.8619 43.7793 58.1457 44.102C58.4295 44.4247 58.5714 44.8125 58.5714 45.2664C58.5714 45.7575 58.4213 46.1858 58.1203 46.553C57.8955 46.827 57.5699 47.0275 57.1433 47.1546C56.9506 47.2115 56.8759 47.4467 56.9932 47.6118C57.2713 48.003 57.5814 48.6268 57.9234 49.4843C58.0013 49.6799 57.8578 49.8944 57.6478 49.8944H56.2493C56.1262 49.8944 56.0171 49.8185 55.9728 49.703C55.8186 49.3019 55.6423 48.8703 55.4438 48.4073C55.2125 47.8693 55.0386 47.5581 54.9229 47.4723C54.8065 47.3865 54.6662 47.3436 54.5021 47.3436H54.3996L53.9173 49.6576C53.8886 49.7962 53.7672 49.8953 53.6269 49.8953H52.2989C52.1103 49.8953 51.9692 49.7203 52.0086 49.5346L53.2053 43.8569L53.2037 43.8553ZM54.7244 45.8094C54.6859 45.9951 54.8261 46.1693 55.0148 46.1693C55.6275 46.1693 56.0237 46.1412 56.2042 46.0834C56.3846 46.0265 56.5183 45.9299 56.6061 45.7946C56.6938 45.6592 56.7381 45.5289 56.7381 45.4026C56.7381 45.2425 56.6856 45.1171 56.5806 45.0263C56.4757 44.9347 56.2476 44.8893 55.8957 44.8893H55.1583C55.0181 44.8893 54.8967 44.9883 54.868 45.1261L54.7252 45.8086L54.7244 45.8094Z" fill="white"/>
<path d="M60.8131 43.8543C60.8427 43.7165 60.9632 43.6191 61.1035 43.6191H63.6971C64.2303 43.6191 64.6322 43.6827 64.9029 43.8098C65.1736 43.9369 65.3803 44.125 65.5222 44.3751C65.6641 44.6251 65.7346 44.9305 65.7346 45.2927C65.7346 45.764 65.6075 46.1824 65.354 46.5488C65.1006 46.9152 64.7815 47.1784 64.3968 47.3385C64.0121 47.4986 63.4798 47.5779 62.7989 47.5779H62.1846C62.0443 47.5779 61.9229 47.6769 61.8942 47.8147L61.5087 49.6558C61.48 49.7937 61.3586 49.8927 61.2183 49.8927H59.883C59.6935 49.8927 59.5532 49.7169 59.5926 49.5312L60.8131 43.8535V43.8543ZM62.2961 45.9736C62.2551 46.1601 62.3962 46.3367 62.5857 46.3367H62.867C63.1705 46.3367 63.4191 46.2467 63.6135 46.0668C63.8079 45.8869 63.9046 45.6732 63.9046 45.4248C63.9046 45.0485 63.702 44.8595 63.296 44.8595H62.7776C62.6382 44.8595 62.5176 44.9569 62.4881 45.0939L62.2953 45.9736H62.2961Z" fill="white"/>
<path d="M28.3407 16.211L14.8369 40.4123C14.654 40.7407 14.3087 40.9438 13.9347 40.9438H6.66397C6.16772 40.9438 5.74119 40.5897 5.64768 40.0987L1.01902 15.8983C0.895978 15.2562 1.38567 14.6604 2.0353 14.6604H7.88778C8.40946 14.6604 8.84993 15.0516 8.91473 15.5723L11.1351 33.3787H11.2065L20.1694 15.2389C20.3441 14.8849 20.7034 14.6612 21.0963 14.6612H27.4368C28.2283 14.6612 28.727 15.5187 28.3391 16.2127L28.3407 16.211Z" fill="#EB5757"/>
<path d="M42.9736 40.9445H37.227C36.6889 40.9445 36.2402 40.5294 36.1951 39.9897L35.9966 37.5965C35.9515 37.0567 35.5036 36.6416 34.9647 36.6416H28.0533C27.6538 36.6416 27.2897 36.8727 27.1182 37.2367L25.6483 40.3503C25.4769 40.7134 25.1127 40.9453 24.7133 40.9453H18.4449C17.6525 40.9453 17.1538 40.0862 17.5435 39.3914L31.1292 15.1901C31.313 14.8633 31.6575 14.6611 32.0307 14.6611H39.1505C39.6598 14.6611 40.0929 15.0333 40.1725 15.5392L43.9957 39.7405C44.0957 40.3726 43.6102 40.9453 42.9736 40.9453V40.9445ZM34.2749 31.0654C34.8811 31.0654 35.3576 30.5439 35.3068 29.9365L34.5997 21.4917H34.5284L30.7347 29.58C30.4107 30.2707 30.9119 31.0663 31.6706 31.0663H34.2757L34.2749 31.0654Z" fill="#EB5757"/>
<path d="M67.5554 35.78L66.6523 40.1159C66.5522 40.5987 66.129 40.9436 65.6393 40.9436H46.694C46.0362 40.9436 45.5448 40.3338 45.681 39.6859L50.7838 15.4847C50.8855 15.0036 51.3071 14.6594 51.7968 14.6594H57.8207C58.4802 14.6594 58.9715 15.2709 58.8329 15.9196L55.1294 33.2647C54.9908 33.9133 55.4822 34.5248 56.1416 34.5248H66.5416C67.1986 34.5248 67.6891 35.133 67.5546 35.78H67.5554Z" fill="#EB5757"/>
<path d="M95.5627 14.6603C96.2222 14.6603 96.7135 15.2719 96.5749 15.9205L93.4588 30.5093C92.6623 34.2146 91.2433 36.9544 89.2 38.7296C87.1568 40.5047 84.121 41.3918 80.0936 41.3918C77.8601 41.3918 76.0752 41.1706 74.7382 40.7283C73.402 40.286 72.2758 39.6233 71.3612 38.7378C70.4467 37.8531 69.7814 36.8463 69.3656 35.7166C68.9497 34.5868 68.7422 33.377 68.7422 32.0863C68.7422 30.449 68.9021 28.8835 69.2229 27.389L71.7394 15.4839C71.8411 15.0028 72.2635 14.6595 72.7516 14.6595H78.7427C79.4013 14.6595 79.8927 15.2702 79.7549 15.918L76.8856 29.4505C76.7429 30.1437 76.6715 30.879 76.6715 31.6555C76.6715 33.7352 77.8953 34.775 80.343 34.775C81.6381 34.775 82.7397 34.3805 83.6486 33.5916C84.5574 32.8026 85.2489 31.2726 85.7246 29.0015L88.5291 15.4872C88.6291 15.0045 89.0524 14.6587 89.5421 14.6587H95.5635L95.5627 14.6603Z" fill="#EB5757"/>
<path d="M119.859 15.918L119.105 19.4831C119.003 19.9642 118.581 20.3075 118.093 20.3075H106.512C106.023 20.3075 105.6 20.6525 105.499 21.1344L105.061 23.2289C104.926 23.8759 105.417 24.4849 106.074 24.4849H116.286C116.948 24.4849 117.44 25.1022 117.296 25.7525L116.58 28.9941C116.475 29.4703 116.055 29.8094 115.57 29.8094H104.476C103.988 29.8094 103.567 30.1519 103.464 30.6314L102.806 33.6939C102.666 34.3425 103.158 34.9557 103.818 34.9557H115.634C116.294 34.9557 116.785 35.568 116.647 36.2167L115.81 40.1218C115.707 40.6012 115.286 40.9437 114.798 40.9437H94.4769C93.8182 40.9437 93.3269 40.333 93.4647 39.6844L98.6003 15.4831C98.702 15.0028 99.1244 14.6587 99.6125 14.6587H118.846C119.504 14.6587 119.995 15.2686 119.858 15.9172L119.859 15.918Z" fill="#EB5757"/>
<path d="M99.4552 9.73611L99.0147 11.8529C98.9884 11.9783 98.8794 12.0674 98.7522 12.0674H90.5809C90.4103 12.0674 90.2831 11.909 90.3184 11.7415L92.4986 1.40026C92.5249 1.27565 92.6348 1.18652 92.7611 1.18652H95.5828C95.7534 1.18652 95.8813 1.34497 95.8452 1.51332L94.2285 9.08416C94.1924 9.25251 94.3204 9.41096 94.491 9.41096H99.1919C99.3625 9.41096 99.4896 9.56858 99.4543 9.73693L99.4552 9.73611Z" fill="white"/>
<path d="M110.953 1.18579C111.124 1.18579 111.251 1.34424 111.215 1.51259L109.883 7.74735C109.553 9.28149 108.966 10.4162 108.119 11.1507C107.274 11.8851 106.016 12.2532 104.35 12.2532C103.425 12.2532 102.686 12.1616 102.132 11.9784C101.579 11.7952 101.113 11.5204 100.735 11.1548C100.356 10.7884 100.08 10.3716 99.9088 9.90372C99.7365 9.43581 99.6504 8.93488 99.6504 8.40094C99.6504 7.72341 99.7168 7.07477 99.8497 6.45583L100.919 1.39953C100.945 1.27492 101.055 1.18579 101.181 1.18579H103.989C104.159 1.18579 104.287 1.34424 104.251 1.51259L103.022 7.30997C102.963 7.59715 102.933 7.90167 102.933 8.22269C102.933 9.08343 103.44 9.51421 104.453 9.51421C104.989 9.51421 105.445 9.35081 105.822 9.02401C106.198 8.69721 106.485 8.06424 106.682 7.12346L107.869 1.40036C107.896 1.27492 108.005 1.18579 108.132 1.18579H110.953Z" fill="white"/>
<path d="M120.743 4.22263L118.153 4.36375C118.019 4.37118 117.898 4.27875 117.875 4.14506C117.74 3.35447 117.226 2.95918 116.331 2.95918C115.933 2.95918 115.627 3.04418 115.413 3.215C115.199 3.38583 115.092 3.58967 115.092 3.82734C115.092 4.00064 115.178 4.16487 115.35 4.32084C115.523 4.47681 115.931 4.67569 116.575 4.91832C117.391 5.23521 118.055 5.53478 118.567 5.81619C119.079 6.09842 119.497 6.46483 119.821 6.9146C120.146 7.36518 120.309 7.92635 120.309 8.59975C120.309 9.23355 120.133 9.8236 119.781 10.3699C119.429 10.9171 118.923 11.3668 118.261 11.7208C117.599 12.0749 116.659 12.2515 115.44 12.2515C113.723 12.2515 112.506 11.9197 111.788 11.2571C111.069 10.5944 110.711 9.74272 110.711 8.70374C110.711 8.56179 110.82 8.44378 110.961 8.43388L113.576 8.2548C113.726 8.2449 113.852 8.36043 113.862 8.51063C113.898 9.04456 114.044 9.43161 114.3 9.67175C114.597 9.95151 115.009 10.091 115.536 10.091C116.062 10.091 116.472 9.97462 116.75 9.7419C117.028 9.50918 117.166 9.24427 117.166 8.94801C117.166 8.72519 117.078 8.5197 116.901 8.33155C116.723 8.14339 116.288 7.92305 115.595 7.67135C114.006 7.09697 113.001 6.56799 112.581 6.08274C112.16 5.5975 111.95 5.01405 111.95 4.33074C111.95 3.70685 112.123 3.13826 112.47 2.6233C112.817 2.10834 113.321 1.70892 113.983 1.42421C114.644 1.1395 115.437 0.997559 116.362 0.997559C119.151 0.997559 120.697 1.96805 120.998 3.90986C121.022 4.06666 120.904 4.21108 120.746 4.21933L120.743 4.22263Z" fill="white"/>
<path d="M82.0124 1.19234C83.6004 1.19234 85.1876 1.19069 86.7756 1.19234C87.4334 1.19317 88.0839 1.25836 88.7106 1.47623C89.8261 1.8641 90.3757 2.61012 90.3822 3.7894C90.388 4.74587 90.2116 5.67097 89.813 6.54574C89.0247 8.27381 87.5999 9.0644 85.7937 9.27979C84.9669 9.37799 84.136 9.3194 83.3068 9.33673C83.1288 9.34085 83.0787 9.29547 83.1222 9.10236C83.2698 8.44051 83.4011 7.77536 83.5249 7.10856C83.5643 6.89564 83.6873 6.86676 83.8686 6.84695C85.09 6.71491 85.7478 5.96641 85.7289 4.74587C85.7207 4.21028 85.4632 3.84717 84.9612 3.67799C84.6274 3.56576 84.282 3.53853 83.931 3.53853C81.4317 3.541 78.9324 3.54018 76.4331 3.54018C76.1936 3.54018 76.0992 3.42052 76.1501 3.18119C76.2682 2.61755 76.4019 2.05721 76.4954 1.48943C76.5372 1.23443 76.6488 1.18327 76.8817 1.18409C78.592 1.19234 80.303 1.18822 82.0132 1.18822V1.19069L82.0124 1.19234Z" fill="white"/>
<path d="M81.9113 9.29887L81.9048 9.28897L81.8966 9.27246L81.8941 9.27329H81.8908L81.8867 9.27906L81.9113 9.29887Z" fill="#EB5757"/>
<path d="M82.2653 7.39245C82.2875 7.29012 82.3104 7.18779 82.3334 7.08546C82.3654 6.94269 82.2579 6.80818 82.1128 6.809C81.3753 6.8156 80.6412 6.80735 79.9128 6.81973H79.8907C79.8267 6.81973 79.766 6.81478 79.7004 6.80075C79.6364 6.78589 79.5618 6.75619 79.4945 6.69677C79.451 6.65798 79.415 6.60517 79.3928 6.554C79.3633 6.48385 79.3559 6.41948 79.3559 6.36172C79.3559 6.34604 79.3584 6.33118 79.36 6.31633C79.4765 5.77001 79.5831 5.21627 79.7086 4.6617C79.7053 4.6617 79.702 4.6617 79.6988 4.6617C79.7201 4.55855 79.7422 4.45539 79.7644 4.35223C79.7947 4.21029 79.6881 4.07743 79.5437 4.07825C79.0368 4.08238 78.5299 4.08403 78.0238 4.08403C77.3947 4.08403 76.7655 4.08073 76.1356 4.07495H76.1299C76.1044 4.07495 76.0864 4.07743 76.0749 4.07825C76.07 4.08981 76.0642 4.11126 76.0601 4.13767C76.0257 4.3217 75.9888 4.50408 75.9519 4.68646C75.9494 4.69719 75.9461 4.70957 75.9437 4.7236C75.9404 4.74093 75.9371 4.75743 75.9338 4.77476C75.86 5.13457 75.7853 5.4919 75.7173 5.84759C75.6804 6.02832 75.6443 6.20905 75.609 6.38978C75.595 6.43269 75.5786 6.47478 75.5565 6.51604C75.5122 6.59939 75.4425 6.67779 75.3572 6.72813C75.3022 6.76196 75.2432 6.78424 75.1874 6.79827C75.1119 6.8156 75.0397 6.82056 74.9667 6.82056H74.9389C74.5205 6.81313 74.0997 6.8123 73.6781 6.8123H73.4706C73.1318 6.8123 72.7923 6.8123 72.451 6.80735H72.4379C72.4108 6.80735 72.3912 6.80818 72.3772 6.81065C72.3748 6.82138 72.3715 6.83541 72.3682 6.85274C72.3362 7.03429 72.3009 7.21585 72.2657 7.39658C72.264 7.39658 72.2624 7.39658 72.2616 7.39658C72.2591 7.40731 72.2558 7.42134 72.2525 7.43867C72.2345 7.54182 72.2148 7.64498 72.1951 7.74814C72.1287 8.06421 72.0598 8.37945 71.9909 8.69222C71.995 8.69222 71.9983 8.69222 72.0024 8.69222C71.9802 8.79538 71.9572 8.89853 71.9351 9.00169C71.9039 9.14281 72.0114 9.2765 72.1549 9.27567C72.2148 9.27567 72.2755 9.27567 72.3354 9.27567C72.4929 9.27567 72.6512 9.2765 72.807 9.2765L73.0982 9.27567C73.3484 9.27567 73.5969 9.28062 73.8414 9.28062C74.0111 9.28062 74.1801 9.27815 74.3475 9.27237C74.3647 9.27155 74.3827 9.27155 74.3999 9.27155C74.4574 9.27155 74.514 9.27485 74.5771 9.28888C74.6386 9.30373 74.7125 9.33261 74.7773 9.39203C74.8207 9.43164 74.8552 9.48198 74.8765 9.53398C74.906 9.60165 74.9126 9.66684 74.9126 9.72378C74.9126 9.73864 74.9101 9.75267 74.9093 9.76752C74.792 10.3147 74.6838 10.8684 74.5656 11.423C74.5673 11.423 74.5697 11.423 74.5714 11.423C74.5501 11.527 74.5287 11.6309 74.5066 11.7349C74.477 11.876 74.5837 12.0081 74.7272 12.0072C75.2259 12.0039 75.7247 12.0023 76.2217 12.0023C76.8705 12.0023 77.5185 12.0048 78.1682 12.0097H78.1788C78.187 12.0097 78.1944 12.0097 78.2002 12.0089C78.2026 12.0006 78.2051 11.9916 78.2075 11.9792C78.2428 11.7927 78.2797 11.607 78.3166 11.4221C78.3191 11.4139 78.3216 11.4048 78.324 11.3924C78.3322 11.3487 78.3412 11.3058 78.3494 11.262C78.4249 10.8923 78.5012 10.5243 78.5717 10.1579C78.6013 10.0126 78.6308 9.8682 78.6595 9.72296C78.671 9.68087 78.6858 9.63878 78.7046 9.59669C78.7407 9.51912 78.7989 9.43825 78.8793 9.3813C78.9318 9.34417 78.9909 9.31693 79.0491 9.2996C79.1262 9.27732 79.2017 9.26989 79.2788 9.26989H79.3034C79.5888 9.27567 79.8768 9.27732 80.1647 9.27732H80.8537C81.1555 9.27732 81.4574 9.27815 81.7617 9.28475H81.7871C81.8462 9.28475 81.8839 9.27897 81.8946 9.27402H81.8954C81.9011 9.26082 81.9118 9.22946 81.92 9.17829C81.9471 9.01489 81.9766 8.85149 82.0069 8.68892C82.0078 8.68892 82.0102 8.68892 82.011 8.68809H82.0119C82.0176 8.67489 82.0283 8.64353 82.0365 8.59237C82.0586 8.45537 82.0832 8.31921 82.1087 8.18304C82.1644 7.91896 82.2235 7.65571 82.285 7.3941C82.2793 7.3941 82.2743 7.3941 82.2694 7.3941L82.2653 7.39245Z" fill="white"/>
<path d="M82.0285 8.71278L82.022 8.70205L82.0137 8.68555L82.0113 8.6872H82.008L82.0039 8.69297L82.0285 8.71278Z" fill="#EB5757"/>
</g>
<defs>
<filter id="filter0_d_717_4214" x="0" y="0" width="122" height="51" filterUnits="userSpaceOnUse" color-interpolation-filters="sRGB">
<feFlood flood-opacity="0" result="BackgroundImageFix"/>
<feColorMatrix in="SourceAlpha" type="matrix" values="0 0 0 0 0 0 0 0 0 0 0 0 0 0 0 0 0 0 127 0" result="hardAlpha"/>
<feOffset/>
<feGaussianBlur stdDeviation="0.5"/>
<feComposite in2="hardAlpha" operator="out"/>
<feColorMatrix type="matrix" values="0 0 0 0 0 0 0 0 0 0 0 0 0 0 0 0 0 0 1 0"/>
<feBlend mode="normal" in2="BackgroundImageFix" result="effect1_dropShadow_717_4214"/>
<feBlend mode="normal" in="SourceGraphic" in2="effect1_dropShadow_717_4214" result="shape"/>
</filter>
<clipPath id="clip0_717_4214">
<rect width="120" height="49" fill="white" transform="translate(1 1)"/>
</clipPath>
</defs>
</svg>
