<svg width="122" height="51" viewBox="0 0 122 51" fill="none" xmlns="http://www.w3.org/2000/svg">
<g clip-path="url(#clip0_930_4391)" filter="url(#filter0_d_930_4391)">
<path d="M11.4897 45.3423C11.5299 45.5189 11.4134 45.6922 11.2346 45.7128L9.77536 45.8787V45.8441C9.77536 45.5387 9.68431 45.3118 9.50303 45.1632C9.32176 45.0147 9.12162 44.9404 8.90343 44.9404C8.61963 44.9404 8.3432 45.0452 8.07416 45.2548C7.8043 45.4644 7.58857 45.7846 7.42534 46.2154C7.26211 46.6462 7.18091 47.0654 7.18091 47.4739C7.18091 47.785 7.26457 48.045 7.43191 48.2554C7.59924 48.465 7.84285 48.5699 8.16357 48.5699C8.45886 48.5699 8.70739 48.4758 8.90999 48.2876C9.07486 48.1341 9.22415 47.913 9.35621 47.6249C9.41199 47.5036 9.53995 47.4335 9.67119 47.4541L10.8942 47.6456C11.0861 47.6753 11.1968 47.8791 11.1214 48.0599C10.9155 48.5525 10.5956 48.9784 10.1601 49.3365C9.62279 49.7788 8.92312 50 8.06022 50C7.19731 50 6.47385 49.759 5.99893 49.2763C5.524 48.7943 5.28613 48.1523 5.28613 47.3501C5.28613 46.737 5.42722 46.1205 5.70938 45.5008C5.99155 44.8818 6.40331 44.3949 6.9455 44.0409C7.48686 43.6869 8.1365 43.5103 8.89359 43.5103C9.65068 43.5103 10.2995 43.7083 10.7547 44.1053C11.1288 44.4312 11.3732 44.843 11.488 45.3407L11.4897 45.3423Z" fill="white"/>
<path d="M17.7478 48.7207L17.5534 49.6557C17.5247 49.7943 17.4033 49.8934 17.2631 49.8934H12.8419C12.6533 49.8934 12.5122 49.7184 12.5515 49.5327L13.7483 43.855C13.777 43.7172 13.8984 43.6182 14.0387 43.6182H15.3748C15.5635 43.6182 15.7046 43.7939 15.6652 43.9796L14.8072 47.9994C14.7679 48.1851 14.9081 48.3609 15.0976 48.3609H17.4575C17.6461 48.3609 17.7864 48.535 17.7478 48.7207Z" fill="white"/>
<path d="M22.8435 43.5117C23.7933 43.5117 24.4913 43.7675 24.9367 44.28C25.3821 44.7925 25.6044 45.4222 25.6044 46.1698C25.6044 46.4579 25.5634 46.7871 25.4814 47.1568C25.3994 47.5266 25.2402 47.9086 25.0048 48.3039C24.7694 48.6992 24.4635 49.0343 24.0878 49.3099C23.7121 49.5856 23.3512 49.7696 23.005 49.862C22.6589 49.9544 22.2914 50.0015 21.9035 50.0015C21.0127 50.0015 20.3179 49.7745 19.8192 49.3206C19.3197 48.8668 19.0703 48.2305 19.0703 47.4118C19.0703 46.9835 19.1318 46.5668 19.2557 46.1599C19.3795 45.7531 19.5633 45.3694 19.8085 45.0087C20.0538 44.6481 20.3556 44.3452 20.7149 44.1018C21.0734 43.8575 21.4269 43.699 21.7739 43.6248C22.1216 43.5505 22.4776 43.5134 22.8435 43.5134V43.5117ZM22.0224 48.5705C22.394 48.5705 22.7098 48.4294 22.969 48.1471C23.2282 47.8649 23.4176 47.5084 23.5366 47.0793C23.6555 46.6501 23.7154 46.344 23.7154 46.1616C23.7154 45.7597 23.6137 45.4552 23.4111 45.2497C23.2085 45.0442 22.9493 44.9411 22.6343 44.9411C22.2824 44.9411 21.9797 45.0706 21.7263 45.3281C21.4728 45.5864 21.2817 45.9305 21.1537 46.3597C21.0258 46.7888 20.9626 47.1552 20.9626 47.4572C20.9626 47.7766 21.0561 48.0423 21.2432 48.2536C21.4302 48.4649 21.6902 48.5705 22.0216 48.5705H22.0224Z" fill="white"/>
<path d="M33.6792 43.619C33.8679 43.619 34.009 43.7948 33.9696 43.9804L33.2388 47.4028C33.0485 48.2874 32.7097 48.9418 32.2217 49.3652C31.7336 49.7886 31.0093 50.0006 30.048 50.0006C29.5148 50.0006 29.0883 49.9478 28.7692 49.8422C28.4501 49.7366 28.1811 49.5781 27.9629 49.3669C27.7447 49.1556 27.5856 48.9154 27.4864 48.6456C27.3871 48.3757 27.3379 48.0869 27.3379 47.7791C27.3379 47.3879 27.3764 47.0141 27.4527 46.6576L28.0449 43.855C28.0745 43.7172 28.1951 43.6182 28.3353 43.6182H29.6641C29.8528 43.6182 29.9939 43.7931 29.9545 43.9788L29.2819 47.1486C29.2483 47.3136 29.231 47.4894 29.231 47.6751C29.231 48.1719 29.523 48.4203 30.1071 48.4203C30.4163 48.4203 30.6796 48.3262 30.8961 48.1381C31.1127 47.9499 31.2784 47.5843 31.3916 47.0421L32.0527 43.8558C32.0814 43.7172 32.2028 43.6182 32.3431 43.6182H33.6784L33.6792 43.619Z" fill="white"/>
<path d="M36.0955 43.8558C36.1242 43.7172 36.2456 43.6182 36.3858 43.6182H38.7055C39.616 43.6182 40.2795 43.8608 40.6962 44.346C41.1129 44.8313 41.3213 45.4651 41.3213 46.2466C41.3213 47.0281 41.1424 47.6899 40.7856 48.327C40.4288 48.9641 40.0056 49.3834 39.5175 49.5872C39.0295 49.791 38.5644 49.8934 38.1223 49.8934H35.203C35.0144 49.8934 34.8741 49.7192 34.9127 49.5336L36.0946 43.8558H36.0955ZM37.1421 48.1471C37.1035 48.3328 37.2446 48.5061 37.4325 48.5061H37.8631C38.3905 48.5061 38.7834 48.2321 39.0418 47.6842C39.3002 47.1362 39.4289 46.5899 39.4289 46.0452C39.4289 45.7226 39.3543 45.4684 39.2058 45.281C39.0566 45.0945 38.79 45.0005 38.4036 45.0005H38.0329C37.8926 45.0005 37.7712 45.0995 37.7425 45.2381L37.1421 48.1463V48.1471Z" fill="white"/>
<path d="M51.1557 43.9798L50.9966 44.7307C50.9671 44.8686 50.8465 44.9676 50.7062 44.9676H48.0224C47.8821 44.9676 47.7607 45.0666 47.732 45.2044L47.6483 45.6047C47.6098 45.7904 47.75 45.9645 47.9387 45.9645H50.2534C50.4429 45.9645 50.584 46.1411 50.543 46.3276L50.3945 47.0018C50.3642 47.1388 50.2436 47.2354 50.105 47.2354H47.5368C47.3973 47.2354 47.2759 47.3336 47.2464 47.4706L47.1111 48.1019C47.0709 48.2876 47.212 48.4634 47.4014 48.4634H50.0992C50.2887 48.4634 50.429 48.6391 50.3896 48.8248L50.2116 49.6575C50.1821 49.7953 50.0615 49.8935 49.9212 49.8935H45.172C44.9833 49.8935 44.8423 49.7186 44.8816 49.5329L46.0866 43.8552C46.1161 43.7173 46.2367 43.6191 46.3769 43.6191H50.867C51.0556 43.6191 51.1967 43.7941 51.1574 43.9798H51.1557Z" fill="white"/>
<path d="M53.2047 43.855C53.2334 43.7172 53.3548 43.6182 53.495 43.6182H56.8023C57.415 43.6182 57.8629 43.7791 58.1467 44.1018C58.4305 44.4244 58.5724 44.8123 58.5724 45.2662C58.5724 45.7572 58.4223 46.1855 58.1212 46.5528C57.8965 46.8267 57.5708 47.0273 57.1443 47.1544C56.9516 47.2113 56.8769 47.4465 56.9942 47.6115C57.2723 48.0027 57.5823 48.6266 57.9244 49.484C58.0023 49.6796 57.8588 49.8942 57.6488 49.8942H56.2502C56.1272 49.8942 56.0181 49.8183 55.9738 49.7027C55.8196 49.3017 55.6433 48.8701 55.4448 48.4071C55.2134 47.869 55.0396 47.5579 54.9239 47.4721C54.8074 47.3863 54.6672 47.3433 54.5031 47.3433H54.4006L53.9183 49.6573C53.8896 49.796 53.7682 49.895 53.6279 49.895H52.2999C52.1113 49.895 51.9702 49.7201 52.0096 49.5344L53.2063 43.8567L53.2047 43.855ZM54.7254 45.8092C54.6868 45.9949 54.8271 46.169 55.0158 46.169C55.6285 46.169 56.0247 46.141 56.2051 46.0832C56.3856 46.0262 56.5193 45.9297 56.6071 45.7943C56.6948 45.659 56.7391 45.5286 56.7391 45.4024C56.7391 45.2423 56.6866 45.1168 56.5816 45.026C56.4766 44.9344 56.2486 44.889 55.8967 44.889H55.1593C55.0191 44.889 54.8977 44.9881 54.8689 45.1259L54.7262 45.8084L54.7254 45.8092Z" fill="white"/>
<path d="M60.8151 43.8543C60.8446 43.7165 60.9652 43.6191 61.1054 43.6191H63.6991C64.2322 43.6191 64.6342 43.6827 64.9048 43.8098C65.1755 43.9369 65.3822 44.125 65.5241 44.3751C65.666 44.6251 65.7366 44.9305 65.7366 45.2927C65.7366 45.764 65.6094 46.1824 65.356 46.5488C65.1025 46.9152 64.7834 47.1784 64.3987 47.3385C64.014 47.4986 63.4817 47.5779 62.8009 47.5779H62.1865C62.0463 47.5779 61.9249 47.6769 61.8962 47.8147L61.5107 49.6558C61.4819 49.7937 61.3605 49.8927 61.2203 49.8927H59.8849C59.6954 49.8927 59.5552 49.7169 59.5945 49.5312L60.8151 43.8535V43.8543ZM62.2981 45.9736C62.2571 46.1601 62.3982 46.3367 62.5876 46.3367H62.869C63.1725 46.3367 63.421 46.2467 63.6154 46.0668C63.8098 45.8869 63.9066 45.6732 63.9066 45.4248C63.9066 45.0485 63.704 44.8595 63.298 44.8595H62.7796C62.6401 44.8595 62.5196 44.9569 62.49 45.0939L62.2973 45.9736H62.2981Z" fill="white"/>
<path d="M28.3407 16.2108L14.8369 40.4121C14.654 40.7405 14.3087 40.9435 13.9347 40.9435H6.66397C6.16772 40.9435 5.74119 40.5895 5.64768 40.0985L1.01902 15.898C0.895978 15.256 1.38567 14.6602 2.0353 14.6602H7.88778C8.40946 14.6602 8.84993 15.0513 8.91473 15.5721L11.1351 33.3785H11.2065L20.1694 15.2387C20.3441 14.8846 20.7034 14.661 21.0963 14.661H27.4368C28.2283 14.661 28.727 15.5184 28.3391 16.2124L28.3407 16.2108Z" fill="white"/>
<path d="M42.9746 40.9445H37.228C36.6899 40.9445 36.2412 40.5294 36.1961 39.9897L35.9976 37.5965C35.9525 37.0567 35.5046 36.6416 34.9657 36.6416H28.0543C27.6548 36.6416 27.2906 36.8727 27.1192 37.2367L25.6493 40.3503C25.4779 40.7134 25.1137 40.9453 24.7142 40.9453H18.4459C17.6535 40.9453 17.1548 40.0862 17.5444 39.3914L31.1302 15.1901C31.314 14.8633 31.6585 14.6611 32.0317 14.6611H39.1514C39.6608 14.6611 40.0939 15.0333 40.1735 15.5392L43.9966 39.7405C44.0967 40.3726 43.6111 40.9453 42.9746 40.9453V40.9445ZM34.2759 31.0654C34.882 31.0654 35.3586 30.5439 35.3077 29.9365L34.6007 21.4917H34.5293L30.7357 29.58C30.4117 30.2707 30.9129 31.0663 31.6716 31.0663H34.2767L34.2759 31.0654Z" fill="white"/>
<path d="M67.5554 35.7798L66.6523 40.1156C66.5522 40.5984 66.129 40.9434 65.6393 40.9434H46.694C46.0362 40.9434 45.5448 40.3335 45.681 39.6857L50.7838 15.4844C50.8855 15.0033 51.3071 14.6592 51.7968 14.6592H57.8207C58.4802 14.6592 58.9715 15.2707 58.8329 15.9193L55.1294 33.2644C54.9908 33.9131 55.4822 34.5246 56.1416 34.5246H66.5416C67.1986 34.5246 67.6891 35.1328 67.5546 35.7798H67.5554Z" fill="white"/>
<path d="M95.5637 14.6603C96.2232 14.6603 96.7145 15.2719 96.5759 15.9205L93.4597 30.5093C92.6633 34.2146 91.2442 36.9544 89.201 38.7296C87.1578 40.5047 84.122 41.3918 80.0946 41.3918C77.8611 41.3918 76.0762 41.1706 74.7392 40.7283C73.403 40.286 72.2768 39.6233 71.3622 38.7378C70.4476 37.8531 69.7824 36.8463 69.3666 35.7166C68.9507 34.5868 68.7432 33.377 68.7432 32.0863C68.7432 30.449 68.9031 28.8835 69.2238 27.389L71.7404 15.4839C71.8421 15.0028 72.2645 14.6595 72.7525 14.6595H78.7436C79.4023 14.6595 79.8936 15.2702 79.7558 15.918L76.8866 29.4505C76.7439 30.1437 76.6725 30.879 76.6725 31.6555C76.6725 33.7352 77.8963 34.775 80.3439 34.775C81.6391 34.775 82.7407 34.3805 83.6496 33.5916C84.5584 32.8026 85.2499 31.2726 85.7256 29.0015L88.53 15.4872C88.6301 15.0045 89.0534 14.6587 89.543 14.6587H95.5645L95.5637 14.6603Z" fill="white"/>
<path d="M119.859 15.918L119.105 19.4831C119.003 19.9642 118.581 20.3075 118.093 20.3075H106.512C106.023 20.3075 105.6 20.6525 105.499 21.1344L105.061 23.2289C104.926 23.8759 105.417 24.4849 106.074 24.4849H116.286C116.948 24.4849 117.44 25.1022 117.296 25.7525L116.58 28.9941C116.475 29.4703 116.055 29.8094 115.57 29.8094H104.476C103.988 29.8094 103.567 30.1519 103.464 30.6314L102.806 33.6939C102.666 34.3425 103.158 34.9557 103.818 34.9557H115.634C116.294 34.9557 116.785 35.568 116.647 36.2167L115.81 40.1218C115.707 40.6012 115.286 40.9437 114.798 40.9437H94.4769C93.8182 40.9437 93.3269 40.333 93.4647 39.6844L98.6003 15.4831C98.702 15.0028 99.1244 14.6587 99.6125 14.6587H118.846C119.504 14.6587 119.995 15.2686 119.858 15.9172L119.859 15.918Z" fill="white"/>
<path d="M99.4571 9.73611L99.0166 11.8529C98.9904 11.9783 98.8813 12.0674 98.7542 12.0674H90.5828C90.4122 12.0674 90.2851 11.909 90.3204 11.7415L92.5006 1.40026C92.5268 1.27565 92.6367 1.18652 92.7631 1.18652H95.5847C95.7553 1.18652 95.8833 1.34497 95.8472 1.51332L94.2305 9.08416C94.1944 9.25251 94.3224 9.41096 94.493 9.41096H99.1938C99.3644 9.41096 99.4916 9.56858 99.4563 9.73693L99.4571 9.73611Z" fill="white"/>
<path d="M110.954 1.18555C111.125 1.18555 111.252 1.34399 111.216 1.51235L109.884 7.7471C109.554 9.28124 108.967 10.416 108.12 11.1504C107.275 11.8849 106.017 12.253 104.351 12.253C103.426 12.253 102.687 12.1614 102.133 11.9782C101.58 11.795 101.114 11.5201 100.736 11.1546C100.357 10.7881 100.081 10.3714 99.9097 9.90348C99.7375 9.43556 99.6514 8.93464 99.6514 8.4007C99.6514 7.72317 99.7178 7.07452 99.8507 6.45559L100.919 1.39929C100.946 1.27467 101.056 1.18555 101.182 1.18555H103.99C104.16 1.18555 104.288 1.34399 104.252 1.51235L103.023 7.30972C102.964 7.59691 102.934 7.90142 102.934 8.22245C102.934 9.08318 103.441 9.51396 104.454 9.51396C104.99 9.51396 105.446 9.35056 105.823 9.02376C106.199 8.69697 106.486 8.064 106.683 7.12321L107.87 1.40011C107.897 1.27467 108.006 1.18555 108.133 1.18555H110.954Z" fill="white"/>
<path d="M120.745 4.22263L118.155 4.36375C118.021 4.37118 117.9 4.27875 117.877 4.14506C117.742 3.35447 117.228 2.95918 116.333 2.95918C115.935 2.95918 115.629 3.04418 115.415 3.215C115.2 3.38583 115.094 3.58967 115.094 3.82734C115.094 4.00064 115.18 4.16487 115.352 4.32084C115.524 4.47681 115.933 4.67569 116.577 4.91832C117.393 5.23521 118.057 5.53478 118.569 5.81619C119.081 6.09842 119.499 6.46483 119.823 6.9146C120.148 7.36518 120.311 7.92635 120.311 8.59975C120.311 9.23355 120.135 9.8236 119.783 10.3699C119.431 10.9171 118.925 11.3668 118.263 11.7208C117.601 12.0749 116.661 12.2515 115.442 12.2515C113.725 12.2515 112.508 11.9197 111.79 11.2571C111.071 10.5944 110.713 9.74272 110.713 8.70374C110.713 8.56179 110.822 8.44378 110.963 8.43388L113.578 8.2548C113.728 8.2449 113.854 8.36043 113.864 8.51063C113.9 9.04456 114.046 9.43161 114.301 9.67175C114.599 9.95151 115.011 10.091 115.538 10.091C116.064 10.091 116.474 9.97462 116.752 9.7419C117.03 9.50918 117.168 9.24427 117.168 8.94801C117.168 8.72519 117.08 8.5197 116.902 8.33155C116.725 8.14339 116.29 7.92305 115.597 7.67135C114.008 7.09697 113.003 6.56799 112.583 6.08274C112.162 5.5975 111.952 5.01405 111.952 4.33074C111.952 3.70685 112.125 3.13826 112.472 2.6233C112.819 2.10834 113.323 1.70892 113.985 1.42421C114.646 1.1395 115.439 0.997559 116.364 0.997559C119.153 0.997559 120.699 1.96805 121 3.90986C121.024 4.06666 120.906 4.21108 120.748 4.21933L120.745 4.22263Z" fill="white"/>
<path d="M82.0124 1.19234C83.6004 1.19234 85.1876 1.19069 86.7756 1.19234C87.4334 1.19317 88.0839 1.25836 88.7106 1.47623C89.8261 1.8641 90.3757 2.61012 90.3822 3.7894C90.388 4.74587 90.2116 5.67097 89.813 6.54574C89.0247 8.27381 87.5999 9.0644 85.7937 9.27979C84.9669 9.37799 84.136 9.3194 83.3068 9.33673C83.1288 9.34085 83.0787 9.29547 83.1222 9.10236C83.2698 8.44051 83.4011 7.77536 83.5249 7.10856C83.5643 6.89564 83.6873 6.86676 83.8686 6.84695C85.09 6.71491 85.7478 5.96641 85.7289 4.74587C85.7207 4.21028 85.4632 3.84717 84.9612 3.67799C84.6274 3.56576 84.282 3.53853 83.931 3.53853C81.4317 3.541 78.9324 3.54018 76.4331 3.54018C76.1936 3.54018 76.0992 3.42052 76.1501 3.18119C76.2682 2.61755 76.4019 2.05721 76.4954 1.48943C76.5372 1.23443 76.6488 1.18327 76.8817 1.18409C78.592 1.19234 80.303 1.18822 82.0132 1.18822V1.19069L82.0124 1.19234Z" fill="white"/>
<path d="M81.9123 9.29887L81.9057 9.28897L81.8975 9.27246L81.8951 9.27329H81.8918L81.8877 9.27906L81.9123 9.29887Z" fill="white"/>
<path d="M82.2663 7.39221C82.2884 7.28988 82.3114 7.18755 82.3344 7.08522C82.3664 6.94245 82.2589 6.80793 82.1137 6.80876C81.3763 6.81536 80.6422 6.80711 79.9138 6.81949H79.8917C79.8277 6.81949 79.767 6.81453 79.7014 6.80051C79.6374 6.78565 79.5628 6.75594 79.4955 6.69652C79.452 6.65774 79.4159 6.60492 79.3938 6.55376C79.3643 6.48361 79.3569 6.41924 79.3569 6.36147C79.3569 6.34579 79.3593 6.33094 79.361 6.31608C79.4774 5.76977 79.5841 5.21603 79.7096 4.66146C79.7063 4.66146 79.703 4.66146 79.6997 4.66146C79.7211 4.5583 79.7432 4.45515 79.7654 4.35199C79.7957 4.21005 79.6891 4.07718 79.5447 4.07801C79.0378 4.08213 78.5309 4.08378 78.0248 4.08378C77.3957 4.08378 76.7665 4.08048 76.1366 4.07471H76.1308C76.1054 4.07471 76.0874 4.07718 76.0759 4.07801C76.071 4.08956 76.0652 4.11102 76.0611 4.13743C76.0267 4.32146 75.9897 4.50384 75.9528 4.68622C75.9504 4.69694 75.9471 4.70932 75.9446 4.72335C75.9414 4.74068 75.9381 4.75719 75.9348 4.77452C75.861 5.13433 75.7863 5.49166 75.7182 5.84734C75.6813 6.02807 75.6452 6.2088 75.61 6.38953C75.596 6.43244 75.5796 6.47453 75.5575 6.51579C75.5132 6.59914 75.4435 6.67754 75.3582 6.72788C75.3032 6.76172 75.2441 6.784 75.1884 6.79803C75.1129 6.81536 75.0407 6.82031 74.9677 6.82031H74.9398C74.5215 6.81288 74.1007 6.81206 73.6791 6.81206H73.4716C73.1328 6.81206 72.7932 6.81206 72.452 6.80711H72.4389C72.4118 6.80711 72.3921 6.80793 72.3782 6.81041C72.3757 6.82114 72.3725 6.83517 72.3692 6.8525C72.3372 7.03405 72.3019 7.21561 72.2666 7.39634C72.265 7.39634 72.2634 7.39634 72.2625 7.39634C72.2601 7.40706 72.2568 7.42109 72.2535 7.43842C72.2355 7.54158 72.2158 7.64473 72.1961 7.74789C72.1297 8.06396 72.0608 8.37921 71.9919 8.69198C71.996 8.69198 71.9992 8.69198 72.0033 8.69198C71.9812 8.79513 71.9582 8.89829 71.9361 9.00144C71.9049 9.14256 72.0124 9.27625 72.1559 9.27543C72.2158 9.27543 72.2765 9.27543 72.3364 9.27543C72.4938 9.27543 72.6522 9.27625 72.808 9.27625L73.0992 9.27543C73.3494 9.27543 73.5979 9.28038 73.8423 9.28038C74.0121 9.28038 74.1811 9.2779 74.3484 9.27213C74.3657 9.2713 74.3837 9.2713 74.4009 9.2713C74.4583 9.2713 74.5149 9.2746 74.5781 9.28863C74.6396 9.30349 74.7134 9.33237 74.7782 9.39179C74.8217 9.4314 74.8562 9.48174 74.8775 9.53373C74.907 9.6014 74.9136 9.6666 74.9136 9.72354C74.9136 9.73839 74.9111 9.75242 74.9103 9.76728C74.793 10.3144 74.6847 10.8682 74.5666 11.4227C74.5683 11.4227 74.5707 11.4227 74.5724 11.4227C74.551 11.5267 74.5297 11.6307 74.5076 11.7347C74.478 11.8758 74.5847 12.0078 74.7282 12.007C75.2269 12.0037 75.7256 12.0021 76.2227 12.0021C76.8715 12.0021 77.5195 12.0045 78.1691 12.0095H78.1798C78.188 12.0095 78.1954 12.0095 78.2011 12.0087C78.2036 12.0004 78.2061 11.9913 78.2085 11.9789C78.2438 11.7924 78.2807 11.6068 78.3176 11.4219C78.3201 11.4136 78.3225 11.4046 78.325 11.3922C78.3332 11.3485 78.3422 11.3055 78.3504 11.2618C78.4259 10.8921 78.5022 10.524 78.5727 10.1576C78.6022 10.0124 78.6318 9.86796 78.6605 9.72271C78.672 9.68062 78.6867 9.63854 78.7056 9.59645C78.7417 9.51888 78.7999 9.438 78.8803 9.38106C78.9328 9.34392 78.9919 9.31669 79.0501 9.29936C79.1272 9.27708 79.2027 9.26965 79.2798 9.26965H79.3044C79.5898 9.27543 79.8777 9.27708 80.1656 9.27708H80.8546C81.1565 9.27708 81.4583 9.2779 81.7627 9.28451H81.7881C81.8471 9.28451 81.8849 9.27873 81.8955 9.27378H81.8964C81.9021 9.26057 81.9128 9.22921 81.921 9.17805C81.948 9.01465 81.9776 8.85125 82.0079 8.68868C82.0087 8.68868 82.0112 8.68868 82.012 8.68785H82.0128C82.0186 8.67465 82.0292 8.64329 82.0374 8.59212C82.0596 8.45513 82.0842 8.31896 82.1096 8.1828C82.1654 7.91872 82.2245 7.65546 82.286 7.39386C82.2802 7.39386 82.2753 7.39386 82.2704 7.39386L82.2663 7.39221Z" fill="white"/>
<path d="M82.0295 8.71278L82.0229 8.70205L82.0147 8.68555L82.0123 8.6872H82.009L82.0049 8.69297L82.0295 8.71278Z" fill="white"/>
</g>
<defs>
<filter id="filter0_d_930_4391" x="0" y="0" width="122" height="51" filterUnits="userSpaceOnUse" color-interpolation-filters="sRGB">
<feFlood flood-opacity="0" result="BackgroundImageFix"/>
<feColorMatrix in="SourceAlpha" type="matrix" values="0 0 0 0 0 0 0 0 0 0 0 0 0 0 0 0 0 0 127 0" result="hardAlpha"/>
<feOffset/>
<feGaussianBlur stdDeviation="0.5"/>
<feComposite in2="hardAlpha" operator="out"/>
<feColorMatrix type="matrix" values="0 0 0 0 0 0 0 0 0 0 0 0 0 0 0 0 0 0 1 0"/>
<feBlend mode="normal" in2="BackgroundImageFix" result="effect1_dropShadow_930_4391"/>
<feBlend mode="normal" in="SourceGraphic" in2="effect1_dropShadow_930_4391" result="shape"/>
</filter>
<clipPath id="clip0_930_4391">
<rect width="120" height="49" fill="white" transform="translate(1 1)"/>
</clipPath>
</defs>
</svg>
