<svg width="122" height="51" viewBox="0 0 122 51" fill="none" xmlns="http://www.w3.org/2000/svg">
<g clip-path="url(#clip0_544_600)" filter="url(#filter0_d_544_600)">
<path d="M11.4897 45.3423C11.5299 45.5189 11.4134 45.6922 11.2346 45.7128L9.77536 45.8787V45.8441C9.77536 45.5387 9.68431 45.3118 9.50303 45.1632C9.32176 45.0147 9.12162 44.9404 8.90343 44.9404C8.61963 44.9404 8.3432 45.0452 8.07416 45.2548C7.8043 45.4644 7.58857 45.7846 7.42534 46.2154C7.26211 46.6462 7.18091 47.0654 7.18091 47.4739C7.18091 47.785 7.26457 48.045 7.43191 48.2554C7.59924 48.465 7.84285 48.5699 8.16357 48.5699C8.45886 48.5699 8.70739 48.4758 8.90999 48.2876C9.07486 48.1341 9.22415 47.913 9.35621 47.6249C9.41199 47.5036 9.53995 47.4335 9.67119 47.4541L10.8942 47.6456C11.0861 47.6753 11.1968 47.8791 11.1214 48.0599C10.9155 48.5525 10.5956 48.9784 10.1601 49.3365C9.62279 49.7788 8.92312 50 8.06022 50C7.19731 50 6.47385 49.759 5.99893 49.2763C5.524 48.7943 5.28613 48.1523 5.28613 47.3501C5.28613 46.737 5.42722 46.1205 5.70938 45.5008C5.99155 44.8818 6.40331 44.3949 6.9455 44.0409C7.48686 43.6869 8.1365 43.5103 8.89359 43.5103C9.65068 43.5103 10.2995 43.7083 10.7547 44.1053C11.1288 44.4312 11.3732 44.843 11.488 45.3407L11.4897 45.3423Z" fill="white"/>
<path d="M17.7478 48.7209L17.5534 49.6559C17.5247 49.7946 17.4033 49.8936 17.2631 49.8936H12.8419C12.6533 49.8936 12.5122 49.7186 12.5515 49.533L13.7483 43.8553C13.777 43.7174 13.8984 43.6184 14.0387 43.6184H15.3748C15.5635 43.6184 15.7046 43.7942 15.6652 43.9799L14.8072 47.9997C14.7679 48.1853 14.9081 48.3611 15.0976 48.3611H17.4575C17.6461 48.3611 17.7864 48.5352 17.7478 48.7209Z" fill="white"/>
<path d="M22.8435 43.512C23.7933 43.512 24.4913 43.7678 24.9367 44.2803C25.3821 44.7927 25.6044 45.4224 25.6044 46.1701C25.6044 46.4581 25.5634 46.7874 25.4814 47.1571C25.3994 47.5268 25.2402 47.9089 25.0048 48.3042C24.7694 48.6995 24.4635 49.0345 24.0878 49.3102C23.7121 49.5858 23.3512 49.7698 23.005 49.8623C22.6589 49.9547 22.2914 50.0017 21.9035 50.0017C21.0127 50.0017 20.3179 49.7748 19.8192 49.3209C19.3197 48.867 19.0703 48.2307 19.0703 47.4121C19.0703 46.9838 19.1318 46.567 19.2557 46.1602C19.3795 45.7533 19.5633 45.3696 19.8085 45.009C20.0538 44.6483 20.3556 44.3455 20.7149 44.102C21.0734 43.8577 21.4269 43.6993 21.7739 43.625C22.1216 43.5507 22.4776 43.5136 22.8435 43.5136V43.512ZM22.0224 48.5707C22.394 48.5707 22.7098 48.4296 22.969 48.1474C23.2282 47.8652 23.4176 47.5086 23.5366 47.0795C23.6555 46.6504 23.7154 46.3442 23.7154 46.1618C23.7154 45.7599 23.6137 45.4554 23.4111 45.2499C23.2085 45.0445 22.9493 44.9413 22.6343 44.9413C22.2824 44.9413 21.9797 45.0709 21.7263 45.3283C21.4728 45.5866 21.2817 45.9308 21.1537 46.3599C21.0258 46.789 20.9626 47.1554 20.9626 47.4575C20.9626 47.7769 21.0561 48.0426 21.2432 48.2538C21.4302 48.4651 21.6902 48.5707 22.0216 48.5707H22.0224Z" fill="white"/>
<path d="M33.6792 43.6192C33.8679 43.6192 34.009 43.795 33.9696 43.9807L33.2388 47.403C33.0485 48.2877 32.7097 48.9421 32.2217 49.3654C31.7336 49.7888 31.0093 50.0009 30.048 50.0009C29.5148 50.0009 29.0883 49.9481 28.7692 49.8424C28.4501 49.7368 28.1811 49.5784 27.9629 49.3671C27.7447 49.1558 27.5856 48.9157 27.4864 48.6458C27.3871 48.376 27.3379 48.0871 27.3379 47.7793C27.3379 47.3881 27.3764 47.0143 27.4527 46.6578L28.0449 43.8553C28.0745 43.7174 28.1951 43.6184 28.3353 43.6184H29.6641C29.8528 43.6184 29.9939 43.7934 29.9545 43.979L29.2819 47.1488C29.2483 47.3139 29.231 47.4897 29.231 47.6753C29.231 48.1721 29.523 48.4205 30.1071 48.4205C30.4163 48.4205 30.6796 48.3265 30.8961 48.1383C31.1127 47.9501 31.2784 47.5846 31.3916 47.0424L32.0527 43.8561C32.0814 43.7174 32.2028 43.6184 32.3431 43.6184H33.6784L33.6792 43.6192Z" fill="white"/>
<path d="M36.0955 43.8561C36.1242 43.7174 36.2456 43.6184 36.3858 43.6184H38.7055C39.616 43.6184 40.2795 43.861 40.6962 44.3463C41.1129 44.8315 41.3213 45.4653 41.3213 46.2468C41.3213 47.0283 41.1424 47.6902 40.7856 48.3273C40.4288 48.9644 40.0056 49.3836 39.5175 49.5874C39.0295 49.7913 38.5644 49.8936 38.1223 49.8936H35.203C35.0144 49.8936 34.8741 49.7195 34.9127 49.5338L36.0946 43.8561H36.0955ZM37.1421 48.1474C37.1035 48.3331 37.2446 48.5064 37.4325 48.5064H37.8631C38.3905 48.5064 38.7834 48.2324 39.0418 47.6844C39.3002 47.1364 39.4289 46.5901 39.4289 46.0455C39.4289 45.7228 39.3543 45.4686 39.2058 45.2813C39.0566 45.0948 38.79 45.0007 38.4036 45.0007H38.0329C37.8926 45.0007 37.7712 45.0997 37.7425 45.2384L37.1421 48.1466V48.1474Z" fill="white"/>
<path d="M51.1557 43.9798L50.9966 44.7307C50.9671 44.8686 50.8465 44.9676 50.7062 44.9676H48.0224C47.8821 44.9676 47.7607 45.0666 47.732 45.2044L47.6483 45.6047C47.6098 45.7904 47.75 45.9645 47.9387 45.9645H50.2534C50.4429 45.9645 50.584 46.1411 50.543 46.3276L50.3945 47.0018C50.3642 47.1388 50.2436 47.2354 50.105 47.2354H47.5368C47.3973 47.2354 47.2759 47.3336 47.2464 47.4706L47.1111 48.1019C47.0709 48.2876 47.212 48.4634 47.4014 48.4634H50.0992C50.2887 48.4634 50.429 48.6391 50.3896 48.8248L50.2116 49.6575C50.1821 49.7953 50.0615 49.8935 49.9212 49.8935H45.172C44.9833 49.8935 44.8423 49.7186 44.8816 49.5329L46.0866 43.8552C46.1161 43.7173 46.2367 43.6191 46.3769 43.6191H50.867C51.0556 43.6191 51.1967 43.7941 51.1574 43.9798H51.1557Z" fill="white"/>
<path d="M53.2047 43.8553C53.2334 43.7174 53.3548 43.6184 53.495 43.6184H56.8023C57.415 43.6184 57.8629 43.7793 58.1467 44.102C58.4305 44.4247 58.5724 44.8125 58.5724 45.2664C58.5724 45.7575 58.4223 46.1858 58.1212 46.553C57.8965 46.827 57.5708 47.0275 57.1443 47.1546C56.9516 47.2115 56.8769 47.4467 56.9942 47.6118C57.2723 48.003 57.5823 48.6268 57.9244 49.4843C58.0023 49.6799 57.8588 49.8944 57.6488 49.8944H56.2502C56.1272 49.8944 56.0181 49.8185 55.9738 49.703C55.8196 49.3019 55.6433 48.8703 55.4448 48.4073C55.2134 47.8693 55.0396 47.5581 54.9239 47.4723C54.8074 47.3865 54.6672 47.3436 54.5031 47.3436H54.4006L53.9183 49.6576C53.8896 49.7962 53.7682 49.8953 53.6279 49.8953H52.2999C52.1113 49.8953 51.9702 49.7203 52.0096 49.5346L53.2063 43.8569L53.2047 43.8553ZM54.7254 45.8094C54.6868 45.9951 54.8271 46.1693 55.0158 46.1693C55.6285 46.1693 56.0247 46.1412 56.2051 46.0834C56.3856 46.0265 56.5193 45.9299 56.6071 45.7946C56.6948 45.6592 56.7391 45.5289 56.7391 45.4026C56.7391 45.2425 56.6866 45.1171 56.5816 45.0263C56.4766 44.9347 56.2486 44.8893 55.8967 44.8893H55.1593C55.0191 44.8893 54.8977 44.9883 54.8689 45.1261L54.7262 45.8086L54.7254 45.8094Z" fill="white"/>
<path d="M60.8151 43.8543C60.8446 43.7165 60.9652 43.6191 61.1054 43.6191H63.6991C64.2322 43.6191 64.6342 43.6827 64.9048 43.8098C65.1755 43.9369 65.3822 44.125 65.5241 44.3751C65.666 44.6251 65.7366 44.9305 65.7366 45.2927C65.7366 45.764 65.6094 46.1824 65.356 46.5488C65.1025 46.9152 64.7834 47.1784 64.3987 47.3385C64.014 47.4986 63.4817 47.5779 62.8009 47.5779H62.1865C62.0463 47.5779 61.9249 47.6769 61.8962 47.8147L61.5107 49.6558C61.4819 49.7937 61.3605 49.8927 61.2203 49.8927H59.8849C59.6954 49.8927 59.5552 49.7169 59.5945 49.5312L60.8151 43.8535V43.8543ZM62.2981 45.9736C62.2571 46.1601 62.3982 46.3367 62.5876 46.3367H62.869C63.1725 46.3367 63.421 46.2467 63.6154 46.0668C63.8098 45.8869 63.9066 45.6732 63.9066 45.4248C63.9066 45.0485 63.704 44.8595 63.298 44.8595H62.7796C62.6401 44.8595 62.5196 44.9569 62.49 45.0939L62.2973 45.9736H62.2981Z" fill="white"/>
<path d="M28.3407 16.211L14.8369 40.4123C14.654 40.7407 14.3087 40.9438 13.9347 40.9438H6.66397C6.16772 40.9438 5.74119 40.5897 5.64768 40.0987L1.01902 15.8983C0.895978 15.2562 1.38567 14.6604 2.0353 14.6604H7.88778C8.40946 14.6604 8.84993 15.0516 8.91473 15.5723L11.1351 33.3787H11.2065L20.1694 15.2389C20.3441 14.8849 20.7034 14.6612 21.0963 14.6612H27.4368C28.2283 14.6612 28.727 15.5187 28.3391 16.2127L28.3407 16.211Z" fill="#192F52"/>
<path d="M42.9746 40.9445H37.228C36.6899 40.9445 36.2412 40.5294 36.1961 39.9897L35.9976 37.5965C35.9525 37.0567 35.5046 36.6416 34.9657 36.6416H28.0543C27.6548 36.6416 27.2906 36.8727 27.1192 37.2367L25.6493 40.3503C25.4779 40.7134 25.1137 40.9453 24.7142 40.9453H18.4459C17.6535 40.9453 17.1548 40.0862 17.5444 39.3914L31.1302 15.1901C31.314 14.8633 31.6585 14.6611 32.0317 14.6611H39.1514C39.6608 14.6611 40.0939 15.0333 40.1735 15.5392L43.9966 39.7405C44.0967 40.3726 43.6111 40.9453 42.9746 40.9453V40.9445ZM34.2759 31.0654C34.882 31.0654 35.3586 30.5439 35.3077 29.9365L34.6007 21.4917H34.5293L30.7357 29.58C30.4117 30.2707 30.9129 31.0663 31.6716 31.0663H34.2767L34.2759 31.0654Z" fill="#192F52"/>
<path d="M67.5554 35.78L66.6523 40.1159C66.5522 40.5987 66.129 40.9436 65.6393 40.9436H46.694C46.0362 40.9436 45.5448 40.3338 45.681 39.6859L50.7838 15.4847C50.8855 15.0036 51.3071 14.6594 51.7968 14.6594H57.8207C58.4802 14.6594 58.9715 15.2709 58.8329 15.9196L55.1294 33.2647C54.9908 33.9133 55.4822 34.5248 56.1416 34.5248H66.5416C67.1986 34.5248 67.6891 35.133 67.5546 35.78H67.5554Z" fill="#192F52"/>
<path d="M95.5637 14.6603C96.2232 14.6603 96.7145 15.2719 96.5759 15.9205L93.4597 30.5093C92.6633 34.2146 91.2442 36.9544 89.201 38.7296C87.1578 40.5047 84.122 41.3918 80.0946 41.3918C77.8611 41.3918 76.0762 41.1706 74.7392 40.7283C73.403 40.286 72.2768 39.6233 71.3622 38.7378C70.4476 37.8531 69.7824 36.8463 69.3666 35.7166C68.9507 34.5868 68.7432 33.377 68.7432 32.0863C68.7432 30.449 68.9031 28.8835 69.2238 27.389L71.7404 15.4839C71.8421 15.0028 72.2645 14.6595 72.7525 14.6595H78.7436C79.4023 14.6595 79.8936 15.2702 79.7558 15.918L76.8866 29.4505C76.7439 30.1437 76.6725 30.879 76.6725 31.6555C76.6725 33.7352 77.8963 34.775 80.3439 34.775C81.6391 34.775 82.7407 34.3805 83.6496 33.5916C84.5584 32.8026 85.2499 31.2726 85.7256 29.0015L88.53 15.4872C88.6301 15.0045 89.0534 14.6587 89.543 14.6587H95.5645L95.5637 14.6603Z" fill="#192F52"/>
<path d="M119.859 15.918L119.105 19.4831C119.003 19.9642 118.581 20.3075 118.093 20.3075H106.512C106.023 20.3075 105.6 20.6525 105.499 21.1344L105.061 23.2289C104.926 23.8759 105.417 24.4849 106.074 24.4849H116.286C116.948 24.4849 117.44 25.1022 117.296 25.7525L116.58 28.9941C116.475 29.4703 116.055 29.8094 115.57 29.8094H104.476C103.988 29.8094 103.567 30.1519 103.464 30.6314L102.806 33.6939C102.666 34.3425 103.158 34.9557 103.818 34.9557H115.634C116.294 34.9557 116.785 35.568 116.647 36.2167L115.81 40.1218C115.707 40.6012 115.286 40.9437 114.798 40.9437H94.4769C93.8182 40.9437 93.3269 40.333 93.4647 39.6844L98.6003 15.4831C98.702 15.0028 99.1244 14.6587 99.6125 14.6587H118.846C119.504 14.6587 119.995 15.2686 119.858 15.9172L119.859 15.918Z" fill="#192F52"/>
<path d="M99.4571 9.73611L99.0166 11.8529C98.9904 11.9783 98.8813 12.0674 98.7542 12.0674H90.5828C90.4122 12.0674 90.2851 11.909 90.3204 11.7415L92.5006 1.40026C92.5268 1.27565 92.6367 1.18652 92.7631 1.18652H95.5847C95.7553 1.18652 95.8833 1.34497 95.8472 1.51332L94.2305 9.08416C94.1944 9.25251 94.3224 9.41096 94.493 9.41096H99.1938C99.3644 9.41096 99.4916 9.56858 99.4563 9.73693L99.4571 9.73611Z" fill="white"/>
<path d="M110.954 1.18579C111.125 1.18579 111.252 1.34424 111.216 1.51259L109.884 7.74735C109.554 9.28149 108.967 10.4162 108.12 11.1507C107.275 11.8851 106.017 12.2532 104.351 12.2532C103.426 12.2532 102.687 12.1616 102.133 11.9784C101.58 11.7952 101.114 11.5204 100.736 11.1548C100.357 10.7884 100.081 10.3716 99.9097 9.90372C99.7375 9.43581 99.6514 8.93488 99.6514 8.40094C99.6514 7.72341 99.7178 7.07477 99.8507 6.45583L100.919 1.39953C100.946 1.27492 101.056 1.18579 101.182 1.18579H103.99C104.16 1.18579 104.288 1.34424 104.252 1.51259L103.023 7.30997C102.964 7.59715 102.934 7.90167 102.934 8.22269C102.934 9.08343 103.441 9.51421 104.454 9.51421C104.99 9.51421 105.446 9.35081 105.823 9.02401C106.199 8.69721 106.486 8.06424 106.683 7.12346L107.87 1.40036C107.897 1.27492 108.006 1.18579 108.133 1.18579H110.954Z" fill="white"/>
<path d="M120.745 4.22263L118.155 4.36375C118.021 4.37118 117.9 4.27875 117.877 4.14506C117.742 3.35447 117.228 2.95918 116.333 2.95918C115.935 2.95918 115.629 3.04418 115.415 3.215C115.2 3.38583 115.094 3.58967 115.094 3.82734C115.094 4.00064 115.18 4.16487 115.352 4.32084C115.524 4.47681 115.933 4.67569 116.577 4.91832C117.393 5.23521 118.057 5.53478 118.569 5.81619C119.081 6.09842 119.499 6.46483 119.823 6.9146C120.148 7.36518 120.311 7.92635 120.311 8.59975C120.311 9.23355 120.135 9.8236 119.783 10.3699C119.431 10.9171 118.925 11.3668 118.263 11.7208C117.601 12.0749 116.661 12.2515 115.442 12.2515C113.725 12.2515 112.508 11.9197 111.79 11.2571C111.071 10.5944 110.713 9.74272 110.713 8.70374C110.713 8.56179 110.822 8.44378 110.963 8.43388L113.578 8.2548C113.728 8.2449 113.854 8.36043 113.864 8.51063C113.9 9.04456 114.046 9.43161 114.301 9.67175C114.599 9.95151 115.011 10.091 115.538 10.091C116.064 10.091 116.474 9.97462 116.752 9.7419C117.03 9.50918 117.168 9.24427 117.168 8.94801C117.168 8.72519 117.08 8.5197 116.902 8.33155C116.725 8.14339 116.29 7.92305 115.597 7.67135C114.008 7.09697 113.003 6.56799 112.583 6.08274C112.162 5.5975 111.952 5.01405 111.952 4.33074C111.952 3.70685 112.125 3.13826 112.472 2.6233C112.819 2.10834 113.323 1.70892 113.985 1.42421C114.646 1.1395 115.439 0.997559 116.364 0.997559C119.153 0.997559 120.699 1.96805 121 3.90986C121.024 4.06666 120.906 4.21108 120.748 4.21933L120.745 4.22263Z" fill="white"/>
<path d="M82.0124 1.19234C83.6004 1.19234 85.1876 1.19069 86.7756 1.19234C87.4334 1.19317 88.0839 1.25836 88.7106 1.47623C89.8261 1.8641 90.3757 2.61012 90.3822 3.7894C90.388 4.74587 90.2116 5.67097 89.813 6.54574C89.0247 8.27381 87.5999 9.0644 85.7937 9.27979C84.9669 9.37799 84.136 9.3194 83.3068 9.33673C83.1288 9.34085 83.0787 9.29547 83.1222 9.10236C83.2698 8.44051 83.4011 7.77536 83.5249 7.10856C83.5643 6.89564 83.6873 6.86676 83.8686 6.84695C85.09 6.71491 85.7478 5.96641 85.7289 4.74587C85.7207 4.21028 85.4632 3.84717 84.9612 3.67799C84.6274 3.56576 84.282 3.53853 83.931 3.53853C81.4317 3.541 78.9324 3.54018 76.4331 3.54018C76.1936 3.54018 76.0992 3.42052 76.1501 3.18119C76.2682 2.61755 76.4019 2.05721 76.4954 1.48943C76.5372 1.23443 76.6488 1.18327 76.8817 1.18409C78.592 1.19234 80.303 1.18822 82.0132 1.18822V1.19069L82.0124 1.19234Z" fill="white"/>
<path d="M81.9123 9.29887L81.9057 9.28897L81.8975 9.27246L81.8951 9.27329H81.8918L81.8877 9.27906L81.9123 9.29887Z" fill="#EB5757"/>
<path d="M82.2663 7.39245C82.2884 7.29012 82.3114 7.18779 82.3344 7.08546C82.3664 6.94269 82.2589 6.80818 82.1137 6.809C81.3763 6.8156 80.6422 6.80735 79.9138 6.81973H79.8917C79.8277 6.81973 79.767 6.81478 79.7014 6.80075C79.6374 6.78589 79.5628 6.75619 79.4955 6.69677C79.452 6.65798 79.4159 6.60517 79.3938 6.554C79.3643 6.48385 79.3569 6.41948 79.3569 6.36172C79.3569 6.34604 79.3593 6.33118 79.361 6.31633C79.4774 5.77001 79.5841 5.21627 79.7096 4.6617C79.7063 4.6617 79.703 4.6617 79.6997 4.6617C79.7211 4.55855 79.7432 4.45539 79.7654 4.35223C79.7957 4.21029 79.6891 4.07743 79.5447 4.07825C79.0378 4.08238 78.5309 4.08403 78.0248 4.08403C77.3957 4.08403 76.7665 4.08073 76.1366 4.07495H76.1308C76.1054 4.07495 76.0874 4.07743 76.0759 4.07825C76.071 4.08981 76.0652 4.11126 76.0611 4.13767C76.0267 4.3217 75.9897 4.50408 75.9528 4.68646C75.9504 4.69719 75.9471 4.70957 75.9446 4.7236C75.9414 4.74093 75.9381 4.75743 75.9348 4.77476C75.861 5.13457 75.7863 5.4919 75.7182 5.84759C75.6813 6.02832 75.6452 6.20905 75.61 6.38978C75.596 6.43269 75.5796 6.47478 75.5575 6.51604C75.5132 6.59939 75.4435 6.67779 75.3582 6.72813C75.3032 6.76196 75.2441 6.78424 75.1884 6.79827C75.1129 6.8156 75.0407 6.82056 74.9677 6.82056H74.9398C74.5215 6.81313 74.1007 6.8123 73.6791 6.8123H73.4716C73.1328 6.8123 72.7932 6.8123 72.452 6.80735H72.4389C72.4118 6.80735 72.3921 6.80818 72.3782 6.81065C72.3757 6.82138 72.3725 6.83541 72.3692 6.85274C72.3372 7.03429 72.3019 7.21585 72.2666 7.39658C72.265 7.39658 72.2634 7.39658 72.2625 7.39658C72.2601 7.40731 72.2568 7.42134 72.2535 7.43867C72.2355 7.54182 72.2158 7.64498 72.1961 7.74814C72.1297 8.06421 72.0608 8.37945 71.9919 8.69222C71.996 8.69222 71.9992 8.69222 72.0033 8.69222C71.9812 8.79538 71.9582 8.89853 71.9361 9.00169C71.9049 9.14281 72.0124 9.2765 72.1559 9.27567C72.2158 9.27567 72.2765 9.27567 72.3364 9.27567C72.4938 9.27567 72.6522 9.2765 72.808 9.2765L73.0992 9.27567C73.3494 9.27567 73.5979 9.28062 73.8423 9.28062C74.0121 9.28062 74.1811 9.27815 74.3484 9.27237C74.3657 9.27155 74.3837 9.27155 74.4009 9.27155C74.4583 9.27155 74.5149 9.27485 74.5781 9.28888C74.6396 9.30373 74.7134 9.33261 74.7782 9.39203C74.8217 9.43164 74.8562 9.48198 74.8775 9.53398C74.907 9.60165 74.9136 9.66684 74.9136 9.72378C74.9136 9.73864 74.9111 9.75267 74.9103 9.76752C74.793 10.3147 74.6847 10.8684 74.5666 11.423C74.5683 11.423 74.5707 11.423 74.5724 11.423C74.551 11.527 74.5297 11.6309 74.5076 11.7349C74.478 11.876 74.5847 12.0081 74.7282 12.0072C75.2269 12.0039 75.7256 12.0023 76.2227 12.0023C76.8715 12.0023 77.5195 12.0048 78.1691 12.0097H78.1798C78.188 12.0097 78.1954 12.0097 78.2011 12.0089C78.2036 12.0006 78.2061 11.9916 78.2085 11.9792C78.2438 11.7927 78.2807 11.607 78.3176 11.4221C78.3201 11.4139 78.3225 11.4048 78.325 11.3924C78.3332 11.3487 78.3422 11.3058 78.3504 11.262C78.4259 10.8923 78.5022 10.5243 78.5727 10.1579C78.6022 10.0126 78.6318 9.8682 78.6605 9.72296C78.672 9.68087 78.6867 9.63878 78.7056 9.59669C78.7417 9.51912 78.7999 9.43825 78.8803 9.3813C78.9328 9.34417 78.9919 9.31693 79.0501 9.2996C79.1272 9.27732 79.2027 9.26989 79.2798 9.26989H79.3044C79.5898 9.27567 79.8777 9.27732 80.1656 9.27732H80.8546C81.1565 9.27732 81.4583 9.27815 81.7627 9.28475H81.7881C81.8471 9.28475 81.8849 9.27897 81.8955 9.27402H81.8964C81.9021 9.26082 81.9128 9.22946 81.921 9.17829C81.948 9.01489 81.9776 8.85149 82.0079 8.68892C82.0087 8.68892 82.0112 8.68892 82.012 8.68809H82.0128C82.0186 8.67489 82.0292 8.64353 82.0374 8.59237C82.0596 8.45537 82.0842 8.31921 82.1096 8.18304C82.1654 7.91896 82.2245 7.65571 82.286 7.3941C82.2802 7.3941 82.2753 7.3941 82.2704 7.3941L82.2663 7.39245Z" fill="white"/>
<path d="M82.0295 8.71278L82.0229 8.70205L82.0147 8.68555L82.0123 8.6872H82.009L82.0049 8.69297L82.0295 8.71278Z" fill="#EB5757"/>
</g>
<defs>
<filter id="filter0_d_544_600" x="0" y="0" width="122" height="51" filterUnits="userSpaceOnUse" color-interpolation-filters="sRGB">
<feFlood flood-opacity="0" result="BackgroundImageFix"/>
<feColorMatrix in="SourceAlpha" type="matrix" values="0 0 0 0 0 0 0 0 0 0 0 0 0 0 0 0 0 0 127 0" result="hardAlpha"/>
<feOffset/>
<feGaussianBlur stdDeviation="0.5"/>
<feComposite in2="hardAlpha" operator="out"/>
<feColorMatrix type="matrix" values="0 0 0 0 0 0 0 0 0 0 0 0 0 0 0 0 0 0 1 0"/>
<feBlend mode="normal" in2="BackgroundImageFix" result="effect1_dropShadow_544_600"/>
<feBlend mode="normal" in="SourceGraphic" in2="effect1_dropShadow_544_600" result="shape"/>
</filter>
<clipPath id="clip0_544_600">
<rect width="120" height="49" fill="white" transform="translate(1 1)"/>
</clipPath>
</defs>
</svg>
