<svg width="336" height="97" viewBox="0 0 336 97" fill="none" xmlns="http://www.w3.org/2000/svg">
<mask id="mask0_412_2340" style="mask-type:alpha" maskUnits="userSpaceOnUse" x="0" y="0" width="336" height="97">
<rect width="334.66" height="96" transform="translate(0.8125 0.0424805)" fill="url(#paint0_linear_412_2340)"/>
</mask>
<g mask="url(#mask0_412_2340)">
<rect width="334.66" height="96" transform="translate(0.8125 0.0424805)" fill="url(#paint1_linear_412_2340)"/>
<g opacity="0.2" clip-path="url(#clip0_412_2340)" filter="url(#filter0_d_412_2340)">
<path d="M27.4897 66.3423C27.5299 66.5189 27.4134 66.6922 27.2346 66.7128L25.7754 66.8787V66.8441C25.7754 66.5387 25.6843 66.3118 25.503 66.1632C25.3218 66.0147 25.1216 65.9404 24.9034 65.9404C24.6196 65.9404 24.3432 66.0452 24.0742 66.2548C23.8043 66.4644 23.5886 66.7846 23.4253 67.2154C23.2621 67.6462 23.1809 68.0654 23.1809 68.4739C23.1809 68.785 23.2646 69.045 23.4319 69.2554C23.5992 69.465 23.8428 69.5699 24.1636 69.5699C24.4589 69.5699 24.7074 69.4758 24.91 69.2876C25.0749 69.1341 25.2241 68.913 25.3562 68.6249C25.412 68.5036 25.5399 68.4335 25.6712 68.4541L26.8942 68.6456C27.0861 68.6753 27.1968 68.8791 27.1214 69.0599C26.9155 69.5525 26.5956 69.9784 26.1601 70.3365C25.6228 70.7788 24.9231 71 24.0602 71C23.1973 71 22.4739 70.759 21.9989 70.2763C21.524 69.7943 21.2861 69.1523 21.2861 68.3501C21.2861 67.737 21.4272 67.1205 21.7094 66.5008C21.9915 65.8818 22.4033 65.3949 22.9455 65.0409C23.4869 64.6869 24.1365 64.5103 24.8936 64.5103C25.6507 64.5103 26.2995 64.7083 26.7547 65.1053C27.1288 65.4312 27.3732 65.843 27.488 66.3407L27.4897 66.3423Z" fill="#EB5757"/>
<path d="M33.7478 69.7209L33.5534 70.6559C33.5247 70.7946 33.4033 70.8936 33.2631 70.8936H28.8419C28.6533 70.8936 28.5122 70.7186 28.5515 70.533L29.7483 64.8553C29.777 64.7174 29.8984 64.6184 30.0387 64.6184H31.3748C31.5635 64.6184 31.7046 64.7942 31.6652 64.9799L30.8072 68.9997C30.7679 69.1853 30.9081 69.3611 31.0976 69.3611H33.4575C33.6461 69.3611 33.7864 69.5352 33.7478 69.7209Z" fill="#EB5757"/>
<path d="M38.8435 64.512C39.7933 64.512 40.4913 64.7678 40.9367 65.2803C41.3821 65.7927 41.6044 66.4224 41.6044 67.1701C41.6044 67.4581 41.5634 67.7874 41.4814 68.1571C41.3994 68.5268 41.2402 68.9089 41.0048 69.3042C40.7694 69.6995 40.4635 70.0345 40.0878 70.3102C39.7121 70.5858 39.3512 70.7698 39.005 70.8623C38.6589 70.9547 38.2914 71.0017 37.9035 71.0017C37.0127 71.0017 36.3179 70.7748 35.8192 70.3209C35.3197 69.867 35.0703 69.2307 35.0703 68.4121C35.0703 67.9838 35.1318 67.567 35.2557 67.1602C35.3795 66.7533 35.5633 66.3696 35.8085 66.009C36.0538 65.6483 36.3556 65.3455 36.7149 65.102C37.0734 64.8577 37.4269 64.6993 37.7739 64.625C38.1216 64.5507 38.4776 64.5136 38.8435 64.5136V64.512ZM38.0224 69.5707C38.394 69.5707 38.7098 69.4296 38.969 69.1474C39.2282 68.8652 39.4176 68.5086 39.5366 68.0795C39.6555 67.6504 39.7154 67.3442 39.7154 67.1618C39.7154 66.7599 39.6137 66.4554 39.4111 66.2499C39.2085 66.0445 38.9493 65.9413 38.6343 65.9413C38.2824 65.9413 37.9797 66.0709 37.7263 66.3283C37.4728 66.5866 37.2817 66.9308 37.1537 67.3599C37.0258 67.789 36.9626 68.1554 36.9626 68.4575C36.9626 68.7769 37.0561 69.0426 37.2432 69.2538C37.4302 69.4651 37.6902 69.5707 38.0216 69.5707H38.0224Z" fill="#EB5757"/>
<path d="M49.6792 64.6192C49.8679 64.6192 50.009 64.795 49.9696 64.9807L49.2388 68.403C49.0485 69.2877 48.7097 69.9421 48.2217 70.3654C47.7336 70.7888 47.0093 71.0009 46.048 71.0009C45.5148 71.0009 45.0883 70.9481 44.7692 70.8424C44.4501 70.7368 44.1811 70.5784 43.9629 70.3671C43.7447 70.1558 43.5856 69.9157 43.4864 69.6458C43.3871 69.376 43.3379 69.0871 43.3379 68.7793C43.3379 68.3881 43.3764 68.0143 43.4527 67.6578L44.0449 64.8553C44.0745 64.7174 44.1951 64.6184 44.3353 64.6184H45.6641C45.8528 64.6184 45.9939 64.7934 45.9545 64.979L45.2819 68.1488C45.2483 68.3139 45.231 68.4897 45.231 68.6753C45.231 69.1721 45.523 69.4205 46.1071 69.4205C46.4163 69.4205 46.6796 69.3265 46.8961 69.1383C47.1127 68.9501 47.2784 68.5846 47.3916 68.0424L48.0527 64.8561C48.0814 64.7174 48.2028 64.6184 48.3431 64.6184H49.6784L49.6792 64.6192Z" fill="#EB5757"/>
<path d="M52.0955 64.8561C52.1242 64.7174 52.2456 64.6184 52.3858 64.6184H54.7055C55.616 64.6184 56.2795 64.861 56.6962 65.3463C57.1129 65.8315 57.3213 66.4653 57.3213 67.2468C57.3213 68.0283 57.1424 68.6902 56.7856 69.3273C56.4288 69.9644 56.0056 70.3836 55.5175 70.5874C55.0295 70.7913 54.5644 70.8936 54.1223 70.8936H51.203C51.0144 70.8936 50.8741 70.7195 50.9127 70.5338L52.0946 64.8561H52.0955ZM53.1421 69.1474C53.1035 69.3331 53.2446 69.5064 53.4325 69.5064H53.8631C54.3905 69.5064 54.7834 69.2324 55.0418 68.6844C55.3002 68.1364 55.4289 67.5901 55.4289 67.0455C55.4289 66.7228 55.3543 66.4686 55.2058 66.2813C55.0566 66.0948 54.79 66.0007 54.4036 66.0007H54.0329C53.8926 66.0007 53.7712 66.0997 53.7425 66.2384L53.1421 69.1466V69.1474Z" fill="#EB5757"/>
<path d="M67.1557 64.9798L66.9966 65.7307C66.9671 65.8686 66.8465 65.9676 66.7062 65.9676H64.0224C63.8821 65.9676 63.7607 66.0666 63.732 66.2044L63.6483 66.6047C63.6098 66.7904 63.75 66.9645 63.9387 66.9645H66.2534C66.4429 66.9645 66.584 67.1411 66.543 67.3276L66.3945 68.0018C66.3642 68.1388 66.2436 68.2354 66.105 68.2354H63.5368C63.3973 68.2354 63.2759 68.3336 63.2464 68.4706L63.1111 69.1019C63.0709 69.2876 63.212 69.4634 63.4014 69.4634H66.0992C66.2887 69.4634 66.429 69.6391 66.3896 69.8248L66.2116 70.6575C66.1821 70.7953 66.0615 70.8935 65.9212 70.8935H61.172C60.9833 70.8935 60.8423 70.7186 60.8816 70.5329L62.0866 64.8552C62.1161 64.7173 62.2367 64.6191 62.3769 64.6191H66.867C67.0556 64.6191 67.1967 64.7941 67.1574 64.9798H67.1557Z" fill="#EB5757"/>
<path d="M69.2047 64.8553C69.2334 64.7174 69.3548 64.6184 69.495 64.6184H72.8023C73.415 64.6184 73.8629 64.7793 74.1467 65.102C74.4305 65.4247 74.5724 65.8125 74.5724 66.2664C74.5724 66.7575 74.4223 67.1858 74.1212 67.553C73.8965 67.827 73.5708 68.0275 73.1443 68.1546C72.9516 68.2115 72.8769 68.4467 72.9942 68.6118C73.2723 69.003 73.5823 69.6268 73.9244 70.4843C74.0023 70.6799 73.8588 70.8944 73.6488 70.8944H72.2502C72.1272 70.8944 72.0181 70.8185 71.9738 70.703C71.8196 70.3019 71.6433 69.8703 71.4448 69.4073C71.2134 68.8693 71.0396 68.5581 70.9239 68.4723C70.8074 68.3865 70.6672 68.3436 70.5031 68.3436H70.4006L69.9183 70.6576C69.8896 70.7962 69.7682 70.8953 69.6279 70.8953H68.2999C68.1113 70.8953 67.9702 70.7203 68.0096 70.5346L69.2063 64.8569L69.2047 64.8553ZM70.7254 66.8094C70.6868 66.9951 70.8271 67.1693 71.0158 67.1693C71.6285 67.1693 72.0247 67.1412 72.2051 67.0834C72.3856 67.0265 72.5193 66.9299 72.6071 66.7946C72.6948 66.6592 72.7391 66.5289 72.7391 66.4026C72.7391 66.2425 72.6866 66.1171 72.5816 66.0263C72.4766 65.9347 72.2486 65.8893 71.8967 65.8893H71.1593C71.0191 65.8893 70.8977 65.9883 70.8689 66.1261L70.7262 66.8086L70.7254 66.8094Z" fill="#EB5757"/>
<path d="M76.8151 64.8543C76.8446 64.7165 76.9652 64.6191 77.1054 64.6191H79.6991C80.2322 64.6191 80.6342 64.6827 80.9048 64.8098C81.1755 64.9369 81.3822 65.125 81.5241 65.3751C81.666 65.6251 81.7366 65.9305 81.7366 66.2927C81.7366 66.764 81.6094 67.1824 81.356 67.5488C81.1025 67.9152 80.7834 68.1784 80.3987 68.3385C80.014 68.4986 79.4817 68.5779 78.8009 68.5779H78.1865C78.0463 68.5779 77.9249 68.6769 77.8962 68.8147L77.5107 70.6558C77.4819 70.7937 77.3605 70.8927 77.2203 70.8927H75.8849C75.6954 70.8927 75.5552 70.7169 75.5945 70.5312L76.8151 64.8535V64.8543ZM78.2981 66.9736C78.2571 67.1601 78.3982 67.3367 78.5876 67.3367H78.869C79.1725 67.3367 79.421 67.2467 79.6154 67.0668C79.8098 66.8869 79.9066 66.6732 79.9066 66.4248C79.9066 66.0485 79.704 65.8595 79.298 65.8595H78.7796C78.6401 65.8595 78.5196 65.9569 78.49 66.0939L78.2973 66.9736H78.2981Z" fill="#EB5757"/>
<path d="M44.3407 37.211L30.8369 61.4123C30.654 61.7407 30.3087 61.9438 29.9347 61.9438H22.664C22.1677 61.9438 21.7412 61.5897 21.6477 61.0987L17.019 36.8983C16.896 36.2562 17.3857 35.6604 18.0353 35.6604H23.8878C24.4095 35.6604 24.8499 36.0516 24.9147 36.5723L27.1351 54.3787H27.2065L36.1694 36.2389C36.3441 35.8849 36.7034 35.6612 37.0963 35.6612H43.4368C44.2283 35.6612 44.727 36.5187 44.3391 37.2127L44.3407 37.211Z" fill="#192F52"/>
<path d="M58.9746 61.9445H53.228C52.6899 61.9445 52.2412 61.5294 52.1961 60.9897L51.9976 58.5965C51.9525 58.0567 51.5046 57.6416 50.9657 57.6416H44.0543C43.6548 57.6416 43.2906 57.8727 43.1192 58.2367L41.6493 61.3503C41.4779 61.7134 41.1137 61.9453 40.7142 61.9453H34.4459C33.6535 61.9453 33.1548 61.0862 33.5444 60.3914L47.1302 36.1901C47.314 35.8633 47.6585 35.6611 48.0317 35.6611H55.1514C55.6608 35.6611 56.0939 36.0333 56.1735 36.5392L59.9966 60.7405C60.0967 61.3726 59.6111 61.9453 58.9746 61.9453V61.9445ZM50.2759 52.0654C50.882 52.0654 51.3586 51.5439 51.3077 50.9365L50.6007 42.4917H50.5293L46.7357 50.58C46.4117 51.2707 46.9129 52.0663 47.6716 52.0663H50.2767L50.2759 52.0654Z" fill="#192F52"/>
<path d="M83.5554 56.78L82.6523 61.1159C82.5522 61.5987 82.129 61.9436 81.6393 61.9436H62.694C62.0362 61.9436 61.5448 61.3338 61.681 60.6859L66.7838 36.4847C66.8855 36.0036 67.3071 35.6594 67.7968 35.6594H73.8207C74.4802 35.6594 74.9715 36.2709 74.8329 36.9196L71.1294 54.2647C70.9908 54.9133 71.4822 55.5248 72.1416 55.5248H82.5416C83.1986 55.5248 83.6891 56.133 83.5546 56.78H83.5554Z" fill="#192F52"/>
<path d="M111.564 35.6603C112.223 35.6603 112.714 36.2719 112.576 36.9205L109.46 51.5093C108.663 55.2146 107.244 57.9544 105.201 59.7296C103.158 61.5047 100.122 62.3918 96.0946 62.3918C93.8611 62.3918 92.0762 62.1706 90.7392 61.7283C89.403 61.286 88.2768 60.6233 87.3622 59.7378C86.4476 58.8531 85.7824 57.8463 85.3666 56.7166C84.9507 55.5868 84.7432 54.377 84.7432 53.0863C84.7432 51.449 84.9031 49.8835 85.2238 48.389L87.7404 36.4839C87.8421 36.0028 88.2645 35.6595 88.7525 35.6595H94.7436C95.4023 35.6595 95.8936 36.2702 95.7558 36.918L92.8866 50.4505C92.7439 51.1437 92.6725 51.879 92.6725 52.6555C92.6725 54.7352 93.8963 55.775 96.3439 55.775C97.6391 55.775 98.7407 55.3805 99.6496 54.5916C100.558 53.8026 101.25 52.2726 101.726 50.0015L104.53 36.4872C104.63 36.0045 105.053 35.6587 105.543 35.6587H111.564L111.564 35.6603Z" fill="#192F52"/>
<path d="M135.859 36.918L135.105 40.4831C135.003 40.9642 134.581 41.3075 134.093 41.3075H122.512C122.023 41.3075 121.6 41.6525 121.499 42.1344L121.061 44.2289C120.926 44.8759 121.417 45.4849 122.074 45.4849H132.286C132.948 45.4849 133.44 46.1022 133.296 46.7525L132.58 49.9941C132.475 50.4703 132.055 50.8094 131.57 50.8094H120.476C119.988 50.8094 119.567 51.1519 119.464 51.6314L118.806 54.6939C118.666 55.3425 119.158 55.9557 119.818 55.9557H131.634C132.294 55.9557 132.785 56.568 132.647 57.2167L131.81 61.1218C131.707 61.6012 131.286 61.9437 130.798 61.9437H110.477C109.818 61.9437 109.327 61.333 109.465 60.6844L114.6 36.4831C114.702 36.0028 115.124 35.6587 115.612 35.6587H134.846C135.504 35.6587 135.995 36.2686 135.858 36.9172L135.859 36.918Z" fill="#192F52"/>
<path d="M115.457 30.7361L115.017 32.8529C114.99 32.9783 114.881 33.0674 114.754 33.0674H106.583C106.412 33.0674 106.285 32.909 106.32 32.7415L108.501 22.4003C108.527 22.2757 108.637 22.1865 108.763 22.1865H111.585C111.755 22.1865 111.883 22.345 111.847 22.5133L110.23 30.0842C110.194 30.2525 110.322 30.411 110.493 30.411H115.194C115.364 30.411 115.492 30.5686 115.456 30.7369L115.457 30.7361Z" fill="#EB5757"/>
<path d="M126.954 22.1857C127.125 22.1857 127.252 22.3441 127.216 22.5125L125.884 28.7472C125.554 30.2814 124.967 31.4161 124.12 32.1506C123.275 32.885 122.017 33.2531 120.351 33.2531C119.426 33.2531 118.687 33.1615 118.133 32.9783C117.58 32.7951 117.114 32.5203 116.736 32.1547C116.357 31.7883 116.081 31.3715 115.91 30.9036C115.737 30.4357 115.651 29.9348 115.651 29.4008C115.651 28.7233 115.718 28.0746 115.851 27.4557L116.919 22.3994C116.946 22.2748 117.056 22.1857 117.182 22.1857H119.99C120.16 22.1857 120.288 22.3441 120.252 22.5125L119.023 28.3098C118.964 28.597 118.934 28.9015 118.934 29.2226C118.934 30.0833 119.441 30.5141 120.454 30.5141C120.99 30.5141 121.446 30.3507 121.823 30.0239C122.199 29.6971 122.486 29.0641 122.683 28.1233L123.87 22.4002C123.897 22.2748 124.006 22.1857 124.133 22.1857H126.954Z" fill="#EB5757"/>
<path d="M136.745 25.2226L134.155 25.3637C134.021 25.3712 133.9 25.2787 133.877 25.1451C133.742 24.3545 133.228 23.9592 132.333 23.9592C131.935 23.9592 131.629 24.0442 131.415 24.215C131.2 24.3858 131.094 24.5897 131.094 24.8273C131.094 25.0006 131.18 25.1649 131.352 25.3208C131.524 25.4768 131.933 25.6757 132.577 25.9183C133.393 26.2352 134.057 26.5348 134.569 26.8162C135.081 27.0984 135.499 27.4648 135.823 27.9146C136.148 28.3652 136.311 28.9264 136.311 29.5998C136.311 30.2335 136.135 30.8236 135.783 31.3699C135.431 31.9171 134.925 32.3668 134.263 32.7208C133.601 33.0749 132.661 33.2515 131.442 33.2515C129.725 33.2515 128.508 32.9197 127.79 32.2571C127.071 31.5944 126.713 30.7427 126.713 29.7037C126.713 29.5618 126.822 29.4438 126.963 29.4339L129.578 29.2548C129.728 29.2449 129.854 29.3604 129.864 29.5106C129.9 30.0446 130.046 30.4316 130.301 30.6718C130.599 30.9515 131.011 31.091 131.538 31.091C132.064 31.091 132.474 30.9746 132.752 30.7419C133.03 30.5092 133.168 30.2443 133.168 29.948C133.168 29.7252 133.08 29.5197 132.902 29.3315C132.725 29.1434 132.29 28.923 131.597 28.6713C130.008 28.097 129.003 27.568 128.583 27.0827C128.162 26.5975 127.952 26.014 127.952 25.3307C127.952 24.7069 128.125 24.1383 128.472 23.6233C128.819 23.1083 129.323 22.7089 129.985 22.4242C130.646 22.1395 131.439 21.9976 132.364 21.9976C135.153 21.9976 136.699 22.9681 137 24.9099C137.024 25.0667 136.906 25.2111 136.748 25.2193L136.745 25.2226Z" fill="#EB5757"/>
<path d="M98.0124 22.1923C99.6004 22.1923 101.188 22.1907 102.776 22.1923C103.433 22.1932 104.084 22.2584 104.711 22.4762C105.826 22.8641 106.376 23.6101 106.382 24.7894C106.388 25.7459 106.212 26.671 105.813 27.5457C105.025 29.2738 103.6 30.0644 101.794 30.2798C100.967 30.378 100.136 30.3194 99.3068 30.3367C99.1288 30.3409 99.0787 30.2955 99.1222 30.1024C99.2698 29.4405 99.4011 28.7754 99.5249 28.1086C99.5643 27.8956 99.6873 27.8668 99.8686 27.847C101.09 27.7149 101.748 26.9664 101.729 25.7459C101.721 25.2103 101.463 24.8472 100.961 24.678C100.627 24.5658 100.282 24.5385 99.931 24.5385C97.4317 24.541 94.9324 24.5402 92.4331 24.5402C92.1936 24.5402 92.0992 24.4205 92.1501 24.1812C92.2682 23.6175 92.4019 23.0572 92.4954 22.4894C92.5372 22.2344 92.6488 22.1833 92.8817 22.1841C94.592 22.1923 96.303 22.1882 98.0132 22.1882V22.1907L98.0124 22.1923Z" fill="#EB5757"/>
<path d="M97.9123 30.2989L97.9057 30.289L97.8975 30.2725L97.8951 30.2733H97.8918L97.8877 30.2791L97.9123 30.2989Z" fill="#EB5757"/>
<path d="M98.2663 28.3925C98.2884 28.2901 98.3114 28.1878 98.3344 28.0855C98.3664 27.9427 98.2589 27.8082 98.1137 27.809C97.3763 27.8156 96.6422 27.8074 95.9138 27.8197H95.8917C95.8277 27.8197 95.767 27.8148 95.7014 27.8007C95.6374 27.7859 95.5628 27.7562 95.4955 27.6968C95.452 27.658 95.4159 27.6052 95.3938 27.554C95.3643 27.4839 95.3569 27.4195 95.3569 27.3617C95.3569 27.346 95.3593 27.3312 95.361 27.3163C95.4774 26.77 95.5841 26.2163 95.7096 25.6617C95.7063 25.6617 95.703 25.6617 95.6997 25.6617C95.7211 25.5585 95.7432 25.4554 95.7654 25.3522C95.7957 25.2103 95.6891 25.0774 95.5447 25.0783C95.0378 25.0824 94.5309 25.084 94.0248 25.084C93.3957 25.084 92.7665 25.0807 92.1366 25.075H92.1308C92.1054 25.075 92.0874 25.0774 92.0759 25.0783C92.071 25.0898 92.0652 25.1113 92.0611 25.1377C92.0267 25.3217 91.9897 25.5041 91.9528 25.6865C91.9504 25.6972 91.9471 25.7096 91.9446 25.7236C91.9414 25.7409 91.9381 25.7574 91.9348 25.7748C91.861 26.1346 91.7863 26.4919 91.7182 26.8476C91.6813 27.0283 91.6452 27.209 91.61 27.3898C91.596 27.4327 91.5796 27.4748 91.5575 27.516C91.5132 27.5994 91.4435 27.6778 91.3582 27.7281C91.3032 27.762 91.2441 27.7842 91.1884 27.7983C91.1129 27.8156 91.0407 27.8206 90.9677 27.8206H90.9398C90.5215 27.8131 90.1007 27.8123 89.6791 27.8123H89.4716C89.1328 27.8123 88.7932 27.8123 88.452 27.8074H88.4389C88.4118 27.8074 88.3921 27.8082 88.3782 27.8107C88.3757 27.8214 88.3725 27.8354 88.3692 27.8527C88.3372 28.0343 88.3019 28.2158 88.2666 28.3966C88.265 28.3966 88.2634 28.3966 88.2625 28.3966C88.2601 28.4073 88.2568 28.4213 88.2535 28.4387C88.2355 28.5418 88.2158 28.645 88.1961 28.7481C88.1297 29.0642 88.0608 29.3795 87.9919 29.6922C87.996 29.6922 87.9992 29.6922 88.0033 29.6922C87.9812 29.7954 87.9582 29.8985 87.9361 30.0017C87.9049 30.1428 88.0124 30.2765 88.1559 30.2757C88.2158 30.2757 88.2765 30.2757 88.3364 30.2757C88.4938 30.2757 88.6522 30.2765 88.808 30.2765L89.0992 30.2757C89.3494 30.2757 89.5979 30.2806 89.8423 30.2806C90.0121 30.2806 90.1811 30.2781 90.3484 30.2724C90.3657 30.2715 90.3837 30.2715 90.4009 30.2715C90.4583 30.2715 90.5149 30.2748 90.5781 30.2889C90.6396 30.3037 90.7134 30.3326 90.7782 30.392C90.8217 30.4316 90.8562 30.482 90.8775 30.534C90.907 30.6016 90.9136 30.6668 90.9136 30.7238C90.9136 30.7386 90.9111 30.7527 90.9103 30.7675C90.793 31.3147 90.6847 31.8684 90.5666 32.423C90.5683 32.423 90.5707 32.423 90.5724 32.423C90.551 32.527 90.5297 32.6309 90.5076 32.7349C90.478 32.876 90.5847 33.0081 90.7282 33.0072C91.2269 33.0039 91.7256 33.0023 92.2227 33.0023C92.8715 33.0023 93.5195 33.0048 94.1691 33.0097H94.1798C94.188 33.0097 94.1954 33.0097 94.2011 33.0089C94.2036 33.0006 94.2061 32.9916 94.2085 32.9792C94.2438 32.7927 94.2807 32.607 94.3176 32.4221C94.3201 32.4139 94.3225 32.4048 94.325 32.3924C94.3332 32.3487 94.3422 32.3058 94.3504 32.262C94.4259 31.8923 94.5022 31.5243 94.5727 31.1579C94.6022 31.0126 94.6318 30.8682 94.6605 30.723C94.672 30.6809 94.6867 30.6388 94.7056 30.5967C94.7417 30.5191 94.7999 30.4382 94.8803 30.3813C94.9328 30.3442 94.9919 30.3169 95.0501 30.2996C95.1272 30.2773 95.2027 30.2699 95.2798 30.2699H95.3044C95.5898 30.2757 95.8777 30.2773 96.1656 30.2773H96.8546C97.1565 30.2773 97.4583 30.2781 97.7627 30.2847H97.7881C97.8471 30.2847 97.8849 30.279 97.8955 30.274H97.8964C97.9021 30.2608 97.9128 30.2295 97.921 30.1783C97.948 30.0149 97.9776 29.8515 98.0079 29.6889C98.0087 29.6889 98.0112 29.6889 98.012 29.6881H98.0128C98.0186 29.6749 98.0292 29.6435 98.0374 29.5924C98.0596 29.4554 98.0842 29.3192 98.1096 29.183C98.1654 28.919 98.2245 28.6557 98.286 28.3941C98.2802 28.3941 98.2753 28.3941 98.2704 28.3941L98.2663 28.3925Z" fill="#EB5757"/>
<path d="M98.0295 29.7128L98.0229 29.7021L98.0147 29.6855L98.0123 29.6872H98.009L98.0049 29.693L98.0295 29.7128Z" fill="#EB5757"/>
</g>
</g>
<defs>
<filter id="filter0_d_412_2340" x="16" y="21" width="122" height="51" filterUnits="userSpaceOnUse" color-interpolation-filters="sRGB">
<feFlood flood-opacity="0" result="BackgroundImageFix"/>
<feColorMatrix in="SourceAlpha" type="matrix" values="0 0 0 0 0 0 0 0 0 0 0 0 0 0 0 0 0 0 127 0" result="hardAlpha"/>
<feOffset/>
<feGaussianBlur stdDeviation="0.5"/>
<feComposite in2="hardAlpha" operator="out"/>
<feColorMatrix type="matrix" values="0 0 0 0 0 0 0 0 0 0 0 0 0 0 0 0 0 0 1 0"/>
<feBlend mode="normal" in2="BackgroundImageFix" result="effect1_dropShadow_412_2340"/>
<feBlend mode="normal" in="SourceGraphic" in2="effect1_dropShadow_412_2340" result="shape"/>
</filter>
<linearGradient id="paint0_linear_412_2340" x1="0" y1="48" x2="334.66" y2="48" gradientUnits="userSpaceOnUse">
<stop offset="0.3"/>
<stop offset="0.9" stop-opacity="0.2"/>
<stop offset="1" stop-opacity="0"/>
</linearGradient>
<linearGradient id="paint1_linear_412_2340" x1="0" y1="48" x2="334.66" y2="48" gradientUnits="userSpaceOnUse">
<stop stop-color="#171717"/>
<stop offset="0.0001" stop-color="#171717" stop-opacity="0"/>
<stop offset="0.11" stop-color="#171717" stop-opacity="0"/>
</linearGradient>
<clipPath id="clip0_412_2340">
<rect width="120" height="49" fill="white" transform="translate(17 22)"/>
</clipPath>
</defs>
</svg>
