<svg width="301" height="123" viewBox="0 0 301 123" fill="none" xmlns="http://www.w3.org/2000/svg">
<g clip-path="url(#clip0_21_7424)" filter="url(#filter0_d_21_7424)">
<path d="M27.1 110.498C27.1999 110.934 26.9106 111.362 26.4666 111.413L22.8428 111.823V111.737C22.8428 110.983 22.6167 110.423 22.1666 110.056C21.7164 109.689 21.2194 109.506 20.6775 109.506C19.9728 109.506 19.2863 109.765 18.6182 110.282C17.948 110.8 17.4123 111.591 17.007 112.654C16.6016 113.718 16.3999 114.753 16.3999 115.762C16.3999 116.53 16.6077 117.172 17.0232 117.692C17.4388 118.21 18.0438 118.468 18.8402 118.468C19.5735 118.468 20.1907 118.236 20.6938 117.771C21.1033 117.392 21.474 116.846 21.8019 116.135C21.9405 115.835 22.2582 115.662 22.5841 115.713L25.6212 116.186C26.0979 116.259 26.3729 116.763 26.1855 117.209C25.6742 118.426 24.8798 119.477 23.7982 120.362C22.4639 121.454 20.7264 122 18.5836 122C16.4407 122 14.6441 121.405 13.4647 120.213C12.2853 119.023 11.6946 117.437 11.6946 115.456C11.6946 113.942 12.0449 112.42 12.7456 110.89C13.4464 109.361 14.4689 108.159 15.8153 107.285C17.1597 106.41 18.773 105.974 20.6531 105.974C22.5332 105.974 24.1444 106.463 25.2749 107.444C26.2038 108.249 26.8108 109.265 27.096 110.494L27.1 110.498Z" fill="#EB5757"/>
<path d="M42.6399 118.841L42.1572 121.15C42.0859 121.493 41.7844 121.737 41.4361 121.737H30.4569C29.9884 121.737 29.638 121.305 29.7358 120.847L32.7077 106.826C32.779 106.486 33.0805 106.241 33.4288 106.241H36.747C37.2155 106.241 37.5659 106.675 37.4681 107.134L35.3374 117.06C35.2397 117.519 35.588 117.953 36.0585 117.953H41.9188C42.3873 117.953 42.7356 118.383 42.6399 118.841Z" fill="#EB5757"/>
<path d="M55.2955 105.978C57.6543 105.978 59.3878 106.61 60.4938 107.876C61.5999 109.141 62.1519 110.696 62.1519 112.542C62.1519 113.253 62.05 114.067 61.8464 114.98C61.6427 115.893 61.2475 116.836 60.6629 117.812C60.0783 118.788 59.3185 119.616 58.3856 120.296C57.4526 120.977 56.5564 121.431 55.6968 121.66C54.8372 121.888 53.9246 122.004 52.9612 122.004C50.749 122.004 49.0237 121.444 47.7853 120.323C46.5448 119.202 45.9255 117.631 45.9255 115.609C45.9255 114.552 46.0783 113.522 46.3859 112.518C46.6935 111.513 47.1497 110.566 47.7588 109.675C48.3678 108.784 49.1174 108.037 50.0096 107.435C50.8998 106.832 51.7777 106.441 52.6393 106.258C53.503 106.074 54.387 105.982 55.2955 105.982V105.978ZM53.2565 118.47C54.1793 118.47 54.9635 118.122 55.6072 117.425C56.2508 116.728 56.7214 115.848 57.0167 114.788C57.3121 113.728 57.4608 112.972 57.4608 112.522C57.4608 111.529 57.2082 110.778 56.7051 110.27C56.202 109.763 55.5583 109.508 54.7761 109.508C53.9022 109.508 53.1506 109.828 52.5212 110.464C51.8918 111.102 51.4172 111.951 51.0994 113.011C50.7816 114.071 50.6248 114.975 50.6248 115.721C50.6248 116.51 50.857 117.166 51.3214 117.688C51.7858 118.21 52.4316 118.47 53.2545 118.47H53.2565Z" fill="#EB5757"/>
<path d="M82.2037 106.243C82.6722 106.243 83.0226 106.677 82.9248 107.136L81.1099 115.587C80.6373 117.771 79.7961 119.387 78.5841 120.433C77.3721 121.478 75.5735 122.002 73.1861 122.002C71.8621 122.002 70.8029 121.872 70.0105 121.611C69.2182 121.35 68.55 120.959 68.0082 120.437C67.4664 119.915 67.0712 119.322 66.8247 118.656C66.5783 117.989 66.4561 117.276 66.4561 116.516C66.4561 115.55 66.5518 114.627 66.7412 113.747L68.2119 106.826C68.2852 106.486 68.5847 106.241 68.933 106.241H72.2329C72.7014 106.241 73.0517 106.673 72.9539 107.132L71.2836 114.959C71.2001 115.367 71.1573 115.801 71.1573 116.259C71.1573 117.486 71.8825 118.1 73.3328 118.1C74.1007 118.1 74.7546 117.867 75.2924 117.403C75.8301 116.938 76.2416 116.035 76.5227 114.696L78.1645 106.828C78.2358 106.486 78.5372 106.241 78.8855 106.241H82.2017L82.2037 106.243Z" fill="#EB5757"/>
<path d="M88.2045 106.828C88.2758 106.486 88.5773 106.241 88.9256 106.241H94.6861C96.9471 106.241 98.595 106.84 99.6298 108.039C100.665 109.237 101.182 110.802 101.182 112.732C101.182 114.662 100.738 116.296 99.8518 117.869C98.9658 119.442 97.9147 120.478 96.7027 120.981C95.4907 121.484 94.3358 121.737 93.2378 121.737H85.9883C85.5198 121.737 85.1715 121.307 85.2673 120.849L88.2025 106.828H88.2045ZM90.8037 117.425C90.708 117.884 91.0583 118.311 91.5248 118.311H92.5942C93.9039 118.311 94.8796 117.635 95.5213 116.282C96.1629 114.929 96.4827 113.58 96.4827 112.235C96.4827 111.438 96.2973 110.81 95.9287 110.348C95.5579 109.887 94.8959 109.655 93.9365 109.655H93.0158C92.6675 109.655 92.366 109.899 92.2947 110.242L90.8037 117.423V117.425Z" fill="#EB5757"/>
<path d="M125.603 107.134L125.208 108.988C125.134 109.329 124.835 109.573 124.487 109.573H117.822C117.473 109.573 117.172 109.818 117.101 110.158L116.893 111.146C116.797 111.605 117.146 112.035 117.614 112.035H123.362C123.833 112.035 124.183 112.471 124.081 112.932L123.713 114.596C123.637 114.935 123.338 115.173 122.994 115.173H116.616C116.27 115.173 115.968 115.416 115.895 115.754L115.559 117.313C115.459 117.771 115.809 118.206 116.28 118.206H122.979C123.45 118.206 123.798 118.64 123.7 119.098L123.258 121.154C123.185 121.495 122.886 121.737 122.537 121.737H110.743C110.275 121.737 109.925 121.305 110.022 120.847L113.015 106.826C113.088 106.486 113.387 106.243 113.736 106.243H124.886C125.354 106.243 125.705 106.675 125.607 107.134H125.603Z" fill="#EB5757"/>
<path d="M130.691 106.826C130.763 106.486 131.064 106.241 131.412 106.241H139.625C141.147 106.241 142.259 106.639 142.964 107.435C143.669 108.232 144.021 109.19 144.021 110.311C144.021 111.523 143.648 112.581 142.901 113.488C142.343 114.164 141.534 114.66 140.475 114.973C139.996 115.114 139.811 115.695 140.102 116.102C140.793 117.068 141.563 118.609 142.412 120.726C142.605 121.209 142.249 121.739 141.728 121.739H138.255C137.949 121.739 137.678 121.552 137.568 121.266C137.185 120.276 136.747 119.21 136.254 118.067C135.68 116.738 135.248 115.97 134.961 115.758C134.672 115.546 134.323 115.44 133.916 115.44H133.661L132.463 121.154C132.392 121.497 132.091 121.741 131.742 121.741H128.445C127.976 121.741 127.626 121.309 127.723 120.851L130.695 106.83L130.691 106.826ZM134.468 111.652C134.372 112.11 134.72 112.54 135.189 112.54C136.711 112.54 137.694 112.471 138.143 112.328C138.591 112.188 138.923 111.949 139.141 111.615C139.359 111.281 139.469 110.959 139.469 110.647C139.469 110.252 139.338 109.942 139.077 109.718C138.817 109.492 138.25 109.38 137.377 109.38H135.545C135.197 109.38 134.896 109.624 134.824 109.964L134.47 111.65L134.468 111.652Z" fill="#EB5757"/>
<path d="M149.592 106.824C149.666 106.484 149.965 106.243 150.313 106.243H156.754C158.078 106.243 159.076 106.4 159.748 106.714C160.421 107.028 160.934 107.492 161.286 108.11C161.639 108.727 161.814 109.481 161.814 110.376C161.814 111.54 161.498 112.573 160.869 113.478C160.239 114.382 159.447 115.033 158.492 115.428C157.536 115.823 156.214 116.019 154.524 116.019H152.998C152.65 116.019 152.348 116.263 152.277 116.604L151.32 121.15C151.248 121.491 150.947 121.735 150.598 121.735H147.282C146.812 121.735 146.463 121.301 146.561 120.842L149.592 106.822V106.824ZM153.275 112.057C153.173 112.518 153.524 112.954 153.994 112.954H154.693C155.446 112.954 156.064 112.732 156.546 112.288C157.029 111.843 157.269 111.315 157.269 110.702C157.269 109.773 156.766 109.306 155.758 109.306H154.471C154.124 109.306 153.825 109.547 153.752 109.885L153.273 112.057H153.275Z" fill="#EB5757"/>
<path d="M68.9472 38.5618L35.4129 98.3241C34.9586 99.1352 34.1011 99.6365 33.1722 99.6365H15.1167C13.8843 99.6365 12.8251 98.7623 12.5929 97.5497L1.09837 37.7895C0.792827 36.204 2.00889 34.7327 3.62215 34.7327H18.1558C19.4513 34.7327 20.5452 35.6987 20.7061 36.9845L26.2201 80.9555H26.3973L48.6551 36.1612C49.089 35.287 49.9812 34.7347 50.9568 34.7347H66.7025C68.6681 34.7347 69.9066 36.8521 68.9431 38.5659L68.9472 38.5618Z" fill="#192F52"/>
<path d="M105.289 99.6386H91.0176C89.6814 99.6386 88.5672 98.6135 88.4552 97.2808L87.9622 91.371C87.8502 90.0382 86.738 89.0132 85.3997 89.0132H68.2364C67.2444 89.0132 66.34 89.5838 65.9142 90.4825L62.264 98.1713C61.8383 99.068 60.9339 99.6406 59.9419 99.6406H44.3755C42.4078 99.6406 41.1693 97.5192 42.1369 95.8033L75.8749 36.041C76.3312 35.234 77.1867 34.7347 78.1135 34.7347H95.7943C97.0592 34.7347 98.1347 35.6538 98.3323 36.903L107.827 96.6653C108.075 98.2263 106.869 99.6406 105.289 99.6406V99.6386ZM83.6866 75.2433C85.192 75.2433 86.3754 73.9554 86.2491 72.4555L84.4933 51.6021H84.3161L74.8952 71.5752C74.0906 73.2809 75.3351 75.2454 77.2193 75.2454H83.6887L83.6866 75.2433Z" fill="#192F52"/>
<path d="M166.33 86.8856L164.087 97.5925C163.839 98.7847 162.788 99.6365 161.571 99.6365H114.524C112.89 99.6365 111.67 98.1306 112.008 96.5308L124.68 36.7685C124.933 35.5805 125.98 34.7307 127.196 34.7307H142.155C143.793 34.7307 145.013 36.2407 144.669 37.8425L135.472 80.6742C135.128 82.276 136.348 83.786 137.986 83.786H163.812C165.444 83.786 166.662 85.2879 166.328 86.8856H166.33Z" fill="#192F52"/>
<path d="M235.886 34.7327C237.523 34.7327 238.743 36.2428 238.399 37.8445L230.661 73.8698C228.683 83.0198 225.159 89.7855 220.085 94.1689C215.011 98.5524 207.472 100.743 197.471 100.743C191.924 100.743 187.492 100.197 184.171 99.1046C180.853 98.0123 178.057 96.3759 175.785 94.1893C173.514 92.0047 171.862 89.5185 170.829 86.7287C169.797 83.9389 169.281 80.9514 169.281 77.7642C169.281 73.721 169.679 69.8552 170.475 66.1647L176.724 36.7665C176.977 35.5784 178.026 34.7307 179.238 34.7307H194.116C195.752 34.7307 196.972 36.2387 196.629 37.8384L189.504 71.2552C189.15 72.967 188.973 74.7828 188.973 76.7004C188.973 81.8358 192.012 84.4035 198.09 84.4035C201.306 84.4035 204.042 83.4294 206.299 81.4812C208.556 79.533 210.273 75.7548 211.454 70.1466L218.419 36.7746C218.667 35.5825 219.718 34.7286 220.934 34.7286H235.888L235.886 34.7327Z" fill="#192F52"/>
<path d="M296.216 37.8384L294.344 46.642C294.092 47.83 293.043 48.6778 291.831 48.6778H263.073C261.857 48.6778 260.808 49.5296 260.557 50.7197L259.47 55.8918C259.133 57.4895 260.352 58.9934 261.985 58.9934H287.343C288.987 58.9934 290.209 60.5177 289.853 62.1236L288.074 70.1283C287.814 71.3041 286.771 72.1417 285.565 72.1417H258.015C256.805 72.1417 255.758 72.9874 255.502 74.1714L253.868 81.7339C253.522 83.3357 254.742 84.8498 256.382 84.8498H285.726C287.364 84.8498 288.584 86.3619 288.239 87.9636L286.162 97.6068C285.907 98.7908 284.86 99.6365 283.648 99.6365H233.185C231.549 99.6365 230.329 98.1285 230.671 96.5267L243.424 36.7644C243.677 35.5784 244.726 34.7286 245.938 34.7286H293.701C295.336 34.7286 296.554 36.2346 296.214 37.8364L296.216 37.8384Z" fill="#192F52"/>
<path d="M245.553 22.5728L244.459 27.7999C244.394 28.1097 244.123 28.3297 243.807 28.3297H223.515C223.092 28.3297 222.776 27.9385 222.863 27.5248L228.278 1.98836C228.343 1.68064 228.616 1.46056 228.929 1.46056H235.937C236.36 1.46056 236.678 1.85183 236.588 2.26755L232.574 20.9629C232.484 21.3786 232.802 21.7699 233.225 21.7699H244.899C245.323 21.7699 245.639 22.1591 245.551 22.5748L245.553 22.5728Z" fill="#EB5757"/>
<path d="M274.103 1.45851C274.529 1.45851 274.844 1.84978 274.755 2.2655L271.447 17.6615C270.628 21.4499 269.169 24.252 267.067 26.0657C264.967 27.8794 261.845 28.7883 257.705 28.7883C255.41 28.7883 253.575 28.5621 252.2 28.1096C250.825 27.6572 249.668 26.9786 248.729 26.0759C247.788 25.1711 247.103 24.1419 246.677 22.9865C246.25 21.831 246.036 20.594 246.036 19.2755C246.036 17.6024 246.201 16.0007 246.531 14.4723L249.185 1.98632C249.25 1.6786 249.523 1.45851 249.837 1.45851H256.809C257.233 1.45851 257.551 1.84978 257.461 2.2655L254.408 16.5815C254.261 17.2906 254.188 18.0426 254.188 18.8353C254.188 20.9608 255.446 22.0246 257.962 22.0246C259.294 22.0246 260.427 21.6211 261.362 20.8141C262.297 20.0071 263.008 18.4441 263.497 16.1209L266.446 1.98836C266.511 1.6786 266.782 1.45851 267.098 1.45851H274.103Z" fill="#EB5757"/>
<path d="M298.418 8.95784L291.985 9.30631C291.653 9.32465 291.352 9.09641 291.295 8.76628C290.961 6.81401 289.684 5.83787 287.461 5.83787C286.471 5.83787 285.712 6.04777 285.18 6.46961C284.648 6.89145 284.383 7.3948 284.383 7.9817C284.383 8.40965 284.597 8.81519 285.025 9.20034C285.453 9.5855 286.467 10.0766 288.066 10.6758C290.093 11.4583 291.743 12.198 293.014 12.8929C294.285 13.5899 295.322 14.4947 296.129 15.6053C296.935 16.718 297.339 18.1038 297.339 19.7666C297.339 21.3317 296.903 22.7888 296.029 24.1379C295.155 25.489 293.898 26.5996 292.254 27.4738C290.61 28.3481 288.276 28.7842 285.247 28.7842C280.984 28.7842 277.961 27.965 276.179 26.3286C274.394 24.6922 273.504 22.5891 273.504 20.0234C273.504 19.6729 273.775 19.3815 274.125 19.357L280.619 18.9148C280.992 18.8904 281.306 19.1757 281.33 19.5466C281.42 20.8651 281.782 21.8208 282.416 22.4138C283.155 23.1047 284.178 23.4491 285.485 23.4491C286.793 23.4491 287.81 23.1617 288.5 22.587C289.191 22.0124 289.535 21.3582 289.535 20.6266C289.535 20.0764 289.315 19.569 288.875 19.1043C288.435 18.6397 287.353 18.0956 285.632 17.4741C281.687 16.0557 279.191 14.7494 278.148 13.5512C277.103 12.3529 276.582 10.9121 276.582 9.2248C276.582 7.68418 277.012 6.28009 277.873 5.00847C278.735 3.73684 279.986 2.75052 281.63 2.04745C283.271 1.34439 285.241 0.993881 287.539 0.993881C294.464 0.993881 298.302 3.3904 299.05 8.18549C299.111 8.57268 298.817 8.92931 298.424 8.94969L298.418 8.95784Z" fill="#EB5757"/>
<path d="M202.233 1.47481C206.177 1.47481 210.118 1.47073 214.062 1.47481C215.695 1.47685 217.311 1.63784 218.867 2.17583C221.637 3.13363 223.002 4.97585 223.018 7.88796C223.033 10.2498 222.595 12.5343 221.605 14.6944C219.647 18.9617 216.109 20.914 211.624 21.4458C209.57 21.6883 207.507 21.5437 205.448 21.5865C205.006 21.5966 204.881 21.4846 204.989 21.0077C205.356 19.3733 205.682 17.7308 205.989 16.0842C206.087 15.5585 206.393 15.4871 206.843 15.4382C209.876 15.1122 211.51 13.2638 211.463 10.2498C211.442 8.92726 210.803 8.03061 209.556 7.61284C208.727 7.3357 207.869 7.26845 206.998 7.26845C200.791 7.27456 194.584 7.27252 188.378 7.27252C187.783 7.27252 187.549 6.97703 187.675 6.38605C187.968 4.99419 188.3 3.61049 188.533 2.20844C188.637 1.57874 188.914 1.45239 189.492 1.45443C193.739 1.47481 197.988 1.46462 202.235 1.46462V1.47073L202.233 1.47481Z" fill="#EB5757"/>
<path d="M201.985 21.4927L201.968 21.4683L201.948 21.4275L201.942 21.4295H201.934L201.924 21.4438L201.985 21.4927Z" fill="#EB5757"/>
<path d="M202.863 16.7853C202.918 16.5326 202.975 16.2799 203.032 16.0272C203.111 15.6746 202.844 15.3425 202.484 15.3445C200.653 15.3608 198.829 15.3404 197.021 15.371H196.966C196.807 15.371 196.656 15.3588 196.493 15.3241C196.334 15.2874 196.149 15.2141 195.982 15.0673C195.874 14.9716 195.784 14.8411 195.729 14.7148C195.656 14.5416 195.638 14.3826 195.638 14.24C195.638 14.2013 195.644 14.1646 195.648 14.1279C195.937 12.7788 196.202 11.4114 196.513 10.042C196.505 10.042 196.497 10.042 196.489 10.042C196.542 9.78725 196.597 9.53252 196.652 9.27778C196.727 8.92727 196.463 8.59918 196.104 8.60121C194.845 8.6114 193.586 8.61548 192.33 8.61548C190.767 8.61548 189.205 8.60733 187.64 8.59306H187.626C187.563 8.59306 187.518 8.59918 187.49 8.60121C187.478 8.62975 187.463 8.68273 187.453 8.74794C187.368 9.20238 187.276 9.65275 187.184 10.1031C187.178 10.1296 187.17 10.1602 187.164 10.1948C187.156 10.2376 187.148 10.2784 187.139 10.3212C186.956 11.2097 186.771 12.0921 186.602 12.9704C186.51 13.4167 186.42 13.863 186.333 14.3093C186.298 14.4152 186.257 14.5192 186.202 14.6211C186.092 14.8269 185.919 15.0205 185.707 15.1448C185.571 15.2283 185.424 15.2834 185.286 15.318C185.098 15.3608 184.919 15.373 184.738 15.373H184.669C183.63 15.3547 182.585 15.3526 181.538 15.3526H181.022C180.181 15.3526 179.338 15.3526 178.49 15.3404H178.458C178.391 15.3404 178.342 15.3425 178.307 15.3486C178.301 15.3751 178.293 15.4097 178.285 15.4525C178.205 15.9008 178.118 16.3492 178.03 16.7955C178.026 16.7955 178.022 16.7955 178.02 16.7955C178.014 16.8219 178.006 16.8566 177.998 16.8994C177.953 17.1541 177.904 17.4088 177.855 17.6636C177.69 18.4441 177.519 19.2225 177.348 19.9949C177.358 19.9949 177.366 19.9949 177.376 19.9949C177.321 20.2496 177.264 20.5044 177.209 20.7591C177.132 21.1076 177.399 21.4377 177.755 21.4357C177.904 21.4357 178.055 21.4357 178.203 21.4357C178.594 21.4357 178.988 21.4377 179.375 21.4377L180.098 21.4357C180.719 21.4357 181.336 21.4479 181.943 21.4479C182.365 21.4479 182.784 21.4418 183.2 21.4275C183.243 21.4255 183.288 21.4255 183.33 21.4255C183.473 21.4255 183.613 21.4336 183.77 21.4683C183.923 21.5049 184.106 21.5763 184.267 21.723C184.375 21.8208 184.461 21.9451 184.514 22.0735C184.587 22.2406 184.603 22.4016 184.603 22.5422C184.603 22.5789 184.597 22.6135 184.595 22.6502C184.304 24.0013 184.035 25.3687 183.742 26.7382C183.746 26.7382 183.752 26.7382 183.756 26.7382C183.703 26.9949 183.65 27.2517 183.595 27.5085C183.522 27.857 183.787 28.183 184.143 28.181C185.381 28.1728 186.62 28.1688 187.854 28.1688C189.466 28.1688 191.075 28.1749 192.688 28.1871H192.715C192.735 28.1871 192.753 28.1871 192.767 28.1851C192.774 28.1647 192.78 28.1423 192.786 28.1117C192.873 27.6511 192.965 27.1926 193.057 26.7361C193.063 26.7158 193.069 26.6933 193.075 26.6628C193.095 26.5548 193.118 26.4488 193.138 26.3408C193.326 25.4278 193.515 24.5189 193.69 23.6141C193.764 23.2555 193.837 22.8988 193.908 22.5402C193.937 22.4362 193.973 22.3323 194.02 22.2284C194.11 22.0368 194.254 21.8371 194.454 21.6965C194.584 21.6048 194.731 21.5376 194.876 21.4948C195.067 21.4397 195.255 21.4214 195.446 21.4214H195.507C196.216 21.4357 196.931 21.4397 197.646 21.4397H199.357C200.107 21.4397 200.856 21.4418 201.612 21.4581H201.675C201.822 21.4581 201.915 21.4438 201.942 21.4316H201.944C201.958 21.399 201.985 21.3215 202.005 21.1952C202.072 20.7917 202.146 20.3882 202.221 19.9867C202.223 19.9867 202.229 19.9867 202.231 19.9847H202.233C202.247 19.9521 202.274 19.8747 202.294 19.7483C202.349 19.41 202.41 19.0738 202.474 18.7375C202.612 18.0854 202.759 17.4353 202.912 16.7893C202.897 16.7893 202.885 16.7893 202.873 16.7893L202.863 16.7853Z" fill="#EB5757"/>
<path d="M202.274 20.0458L202.258 20.0194L202.237 19.9786L202.231 19.9827H202.223L202.213 19.9969L202.274 20.0458Z" fill="#EB5757"/>
</g>
<defs>
<filter id="filter0_d_21_7424" x="0.0515137" y="0" width="300" height="123" filterUnits="userSpaceOnUse" color-interpolation-filters="sRGB">
<feFlood flood-opacity="0" result="BackgroundImageFix"/>
<feColorMatrix in="SourceAlpha" type="matrix" values="0 0 0 0 0 0 0 0 0 0 0 0 0 0 0 0 0 0 127 0" result="hardAlpha"/>
<feOffset/>
<feGaussianBlur stdDeviation="0.5"/>
<feComposite in2="hardAlpha" operator="out"/>
<feColorMatrix type="matrix" values="0 0 0 0 0 0 0 0 0 0 0 0 0 0 0 0 0 0 1 0"/>
<feBlend mode="normal" in2="BackgroundImageFix" result="effect1_dropShadow_21_7424"/>
<feBlend mode="normal" in="SourceGraphic" in2="effect1_dropShadow_21_7424" result="shape"/>
</filter>
<clipPath id="clip0_21_7424">
<rect width="298" height="121" fill="white" transform="translate(1.05151 1)"/>
</clipPath>
</defs>
</svg>
